<svg aria-hidden="true" style="position: absolute; width: 0; height: 0; overflow: hidden;" version="1.1" xmlns="http://www.w3.org/2000/svg" xmlns:xlink="http://www.w3.org/1999/xlink">
<defs>
<symbol id="icon-lock" viewBox="0 0 32 32">
<path d="M24 14.333c-0.547 0-1-0.453-1-1v-2.667c0-4.2-1.187-7-7-7s-7 2.8-7 7v2.667c0 0.547-0.453 1-1 1s-1-0.453-1-1v-2.667c0-3.867 0.933-9 9-9s9 5.133 9 9v2.667c0 0.547-0.453 1-1 1z"></path>
<path d="M22.667 30.333h-13.333c-5.88 0-7.667-1.787-7.667-7.667v-2.667c0-5.88 1.787-7.667 7.667-7.667h13.333c5.88 0 7.667 1.787 7.667 7.667v2.667c0 5.88-1.787 7.667-7.667 7.667zM9.333 14.333c-4.773 0-5.667 0.907-5.667 5.667v2.667c0 4.76 0.893 5.667 5.667 5.667h13.333c4.773 0 5.667-0.907 5.667-5.667v-2.667c0-4.76-0.893-5.667-5.667-5.667h-13.333z"></path>
<path d="M10.667 22.667c-0.173 0-0.347-0.040-0.507-0.107-0.173-0.067-0.307-0.16-0.44-0.28-0.24-0.253-0.387-0.587-0.387-0.947 0-0.173 0.040-0.347 0.107-0.507 0.067-0.173 0.16-0.307 0.28-0.44 0.133-0.12 0.267-0.213 0.44-0.28 0.48-0.213 1.080-0.093 1.453 0.28 0.12 0.133 0.213 0.28 0.28 0.44s0.107 0.333 0.107 0.507c0 0.347-0.147 0.693-0.387 0.947-0.253 0.24-0.6 0.387-0.947 0.387z"></path>
<path d="M16 22.667c-0.347 0-0.693-0.147-0.947-0.387-0.24-0.253-0.387-0.587-0.387-0.947 0-0.173 0.027-0.347 0.107-0.507 0.067-0.16 0.16-0.307 0.28-0.44 0.307-0.307 0.773-0.453 1.2-0.36 0.093 0.013 0.173 0.040 0.253 0.080 0.080 0.027 0.16 0.067 0.24 0.12 0.067 0.040 0.133 0.107 0.2 0.16 0.12 0.133 0.213 0.28 0.28 0.44s0.107 0.333 0.107 0.507c0 0.36-0.147 0.693-0.387 0.947-0.067 0.053-0.133 0.107-0.2 0.16-0.080 0.053-0.16 0.093-0.24 0.12-0.080 0.040-0.16 0.067-0.253 0.080-0.080 0.013-0.173 0.027-0.253 0.027z"></path>
<path d="M21.333 22.667c-0.36 0-0.693-0.147-0.947-0.387-0.12-0.133-0.213-0.28-0.28-0.44s-0.107-0.333-0.107-0.507c0-0.347 0.147-0.693 0.387-0.947 0.067-0.053 0.133-0.107 0.2-0.16 0.080-0.053 0.16-0.093 0.24-0.12 0.080-0.040 0.16-0.067 0.24-0.080 0.44-0.093 0.893 0.053 1.213 0.36 0.24 0.253 0.387 0.587 0.387 0.947 0 0.173-0.040 0.347-0.107 0.507-0.067 0.173-0.16 0.307-0.28 0.44-0.253 0.24-0.6 0.387-0.947 0.387z"></path>
</symbol>
<symbol id="icon-calendar-search" viewBox="0 0 32 32">
<path d="M10.667 7.667c-0.547 0-1-0.453-1-1v-4c0-0.547 0.453-1 1-1s1 0.453 1 1v4c0 0.547-0.453 1-1 1z"></path>
<path d="M21.333 7.667c-0.547 0-1-0.453-1-1v-4c0-0.547 0.453-1 1-1s1 0.453 1 1v4c0 0.547-0.453 1-1 1z"></path>
<path d="M24.267 29.533c-2.907 0-5.267-2.36-5.267-5.267s2.36-5.267 5.267-5.267c2.907 0 5.267 2.36 5.267 5.267s-2.36 5.267-5.267 5.267zM24.267 21c-1.8 0-3.267 1.467-3.267 3.267s1.467 3.267 3.267 3.267c1.8 0 3.267-1.467 3.267-3.267s-1.467-3.267-3.267-3.267z"></path>
<path d="M29.333 30.333c-0.253 0-0.507-0.093-0.707-0.293l-1.333-1.333c-0.387-0.387-0.387-1.027 0-1.413s1.027-0.387 1.413 0l1.333 1.333c0.387 0.387 0.387 1.027 0 1.413-0.2 0.2-0.453 0.293-0.707 0.293z"></path>
<path d="M11.333 19.333c-0.173 0-0.347-0.040-0.507-0.107-0.173-0.067-0.32-0.16-0.44-0.28-0.053-0.067-0.12-0.133-0.16-0.2-0.053-0.080-0.093-0.16-0.12-0.24-0.040-0.080-0.067-0.16-0.080-0.24-0.013-0.093-0.027-0.187-0.027-0.267 0-0.347 0.147-0.693 0.387-0.947 0.12-0.12 0.267-0.213 0.44-0.28 0.48-0.213 1.080-0.093 1.453 0.28 0.24 0.253 0.387 0.6 0.387 0.947 0 0.080-0.013 0.173-0.027 0.267-0.013 0.080-0.040 0.16-0.080 0.24-0.027 0.080-0.067 0.16-0.12 0.24-0.053 0.067-0.107 0.133-0.16 0.2-0.253 0.24-0.6 0.387-0.947 0.387z"></path>
<path d="M16 19.333c-0.347 0-0.693-0.147-0.947-0.387-0.24-0.253-0.387-0.587-0.387-0.947 0-0.173 0.040-0.347 0.107-0.507s0.16-0.307 0.28-0.44c0.493-0.493 1.387-0.493 1.893 0 0.24 0.253 0.387 0.6 0.387 0.947 0 0.080-0.013 0.173-0.027 0.267-0.013 0.080-0.040 0.16-0.080 0.24-0.027 0.080-0.067 0.16-0.12 0.24-0.053 0.067-0.107 0.133-0.16 0.2-0.253 0.24-0.6 0.387-0.947 0.387z"></path>
<path d="M11.333 24c-0.347 0-0.693-0.147-0.947-0.387-0.24-0.253-0.387-0.6-0.387-0.947 0-0.173 0.040-0.347 0.107-0.507 0.067-0.173 0.16-0.32 0.28-0.44 0.493-0.493 1.4-0.493 1.893 0 0.24 0.253 0.387 0.6 0.387 0.947s-0.147 0.693-0.387 0.947c-0.253 0.24-0.6 0.387-0.947 0.387z"></path>
<path d="M27.333 13.12h-22.667c-0.547 0-1-0.453-1-1s0.453-1 1-1h22.667c0.547 0 1 0.453 1 1s-0.453 1-1 1z"></path>
<path d="M17.827 30.333h-7.16c-4.867 0-7.667-2.8-7.667-7.667v-11.333c0-4.867 2.8-7.667 7.667-7.667h10.667c4.867 0 7.667 2.8 7.667 7.667v6c0 0.547-0.453 1-1 1s-1-0.453-1-1v-6c0-3.813-1.853-5.667-5.667-5.667h-10.667c-3.813 0-5.667 1.853-5.667 5.667v11.333c0 3.813 1.853 5.667 5.667 5.667h7.16c0.547 0 1 0.453 1 1s-0.453 1-1 1z"></path>
</symbol>
<symbol id="icon-timer-start" viewBox="0 0 32 32">
<path d="M16 18.333c-0.547 0-1-0.453-1-1v-6.667c0-0.547 0.453-1 1-1s1 0.453 1 1v6.667c0 0.547-0.453 1-1 1z"></path>
<path d="M16 30.333c-6.987 0-12.667-5.68-12.667-12.667s5.68-12.667 12.667-12.667c6.987 0 12.667 5.68 12.667 12.667 0 0.547-0.453 1-1 1s-1-0.453-1-1c0-5.88-4.787-10.667-10.667-10.667s-10.667 4.787-10.667 10.667c0 5.88 4.787 10.667 10.667 10.667 0.547 0 1 0.453 1 1s-0.453 1-1 1z"></path>
<path d="M20 3.667h-8c-0.547 0-1-0.453-1-1s0.453-1 1-1h8c0.547 0 1 0.453 1 1s-0.453 1-1 1z"></path>
<path d="M21.534 29.36c-0.467 0-0.893-0.107-1.28-0.333-0.88-0.507-1.387-1.533-1.387-2.813v-3.080c0-1.28 0.507-2.307 1.387-2.813s2.013-0.427 3.12 0.2l2.667 1.547c1.107 0.64 1.747 1.587 1.747 2.6s-0.64 1.96-1.747 2.6l-2.667 1.547c-0.613 0.36-1.24 0.547-1.84 0.547zM21.547 21.973c-0.107 0-0.213 0.027-0.293 0.067-0.24 0.133-0.387 0.547-0.387 1.080v3.080c0 0.533 0.147 0.947 0.387 1.080s0.667 0.067 1.12-0.2l2.667-1.547c0.467-0.267 0.747-0.6 0.747-0.867s-0.28-0.6-0.747-0.867l-2.667-1.547c-0.307-0.187-0.6-0.28-0.827-0.28z"></path>
</symbol>
<symbol id="icon-setting" viewBox="0 0 32 32">
<path d="M16 21c-2.76 0-5-2.24-5-5s2.24-5 5-5c2.76 0 5 2.24 5 5s-2.24 5-5 5zM16 13c-1.653 0-3 1.347-3 3s1.347 3 3 3c1.653 0 3-1.347 3-3s-1.347-3-3-3z"></path>
<path d="M20.28 29.587c-0.28 0-0.56-0.040-0.84-0.107-0.827-0.227-1.52-0.747-1.96-1.48l-0.16-0.267c-0.787-1.36-1.867-1.36-2.653 0l-0.147 0.253c-0.44 0.747-1.133 1.28-1.96 1.493-0.84 0.227-1.707 0.107-2.44-0.333l-2.293-1.32c-0.813-0.467-1.4-1.227-1.653-2.147-0.24-0.92-0.12-1.867 0.347-2.68 0.387-0.68 0.493-1.293 0.267-1.68s-0.8-0.613-1.587-0.613c-1.947 0-3.533-1.587-3.533-3.533v-2.347c0-1.947 1.587-3.533 3.533-3.533 0.787 0 1.36-0.227 1.587-0.613s0.133-1-0.267-1.68c-0.467-0.813-0.587-1.773-0.347-2.68 0.24-0.92 0.827-1.68 1.653-2.147l2.307-1.32c1.507-0.893 3.493-0.373 4.4 1.16l0.16 0.267c0.787 1.36 1.867 1.36 2.653 0l0.147-0.253c0.907-1.547 2.893-2.067 4.413-1.16l2.293 1.32c0.813 0.467 1.4 1.227 1.653 2.147 0.24 0.92 0.12 1.867-0.347 2.68-0.387 0.68-0.493 1.293-0.267 1.68s0.8 0.613 1.587 0.613c1.947 0 3.533 1.587 3.533 3.533v2.347c0 1.947-1.587 3.533-3.533 3.533-0.787 0-1.36 0.227-1.587 0.613s-0.133 1 0.267 1.68c0.467 0.813 0.6 1.773 0.347 2.68-0.24 0.92-0.827 1.68-1.653 2.147l-2.307 1.32c-0.507 0.28-1.053 0.427-1.613 0.427zM16 24.653c1.187 0 2.293 0.747 3.053 2.067l0.147 0.253c0.16 0.28 0.427 0.48 0.747 0.56s0.64 0.040 0.907-0.12l2.307-1.333c0.347-0.2 0.613-0.533 0.72-0.933s0.053-0.813-0.147-1.16c-0.76-1.307-0.853-2.653-0.267-3.68s1.8-1.613 3.32-1.613c0.853 0 1.533-0.68 1.533-1.533v-2.347c0-0.84-0.68-1.533-1.533-1.533-1.52 0-2.733-0.587-3.32-1.613s-0.493-2.373 0.267-3.68c0.2-0.347 0.253-0.76 0.147-1.16s-0.36-0.72-0.707-0.933l-2.307-1.32c-0.573-0.347-1.333-0.147-1.68 0.44l-0.147 0.253c-0.76 1.32-1.867 2.067-3.053 2.067s-2.293-0.747-3.053-2.067l-0.147-0.267c-0.333-0.56-1.080-0.76-1.653-0.427l-2.307 1.333c-0.347 0.2-0.613 0.533-0.72 0.933s-0.053 0.813 0.147 1.16c0.76 1.307 0.853 2.653 0.267 3.68s-1.8 1.613-3.32 1.613c-0.853 0-1.533 0.68-1.533 1.533v2.347c0 0.84 0.68 1.533 1.533 1.533 1.52 0 2.733 0.587 3.32 1.613s0.493 2.373-0.267 3.68c-0.2 0.347-0.253 0.76-0.147 1.16s0.36 0.72 0.707 0.933l2.307 1.32c0.28 0.173 0.613 0.213 0.92 0.133 0.32-0.080 0.587-0.293 0.76-0.573l0.147-0.253c0.76-1.307 1.867-2.067 3.053-2.067z"></path>
</symbol>
<symbol id="icon-archive-book" viewBox="0 0 32 32">
<path d="M21.333 30.333h-10.667c-4.867 0-7.667-2.8-7.667-7.667v-13.333c0-4.867 2.8-7.667 7.667-7.667h10.667c4.867 0 7.667 2.8 7.667 7.667v13.333c0 4.867-2.8 7.667-7.667 7.667zM10.667 3.667c-3.813 0-5.667 1.853-5.667 5.667v13.333c0 3.813 1.853 5.667 5.667 5.667h10.667c3.813 0 5.667-1.853 5.667-5.667v-13.333c0-3.813-1.853-5.667-5.667-5.667h-10.667z"></path>
<path d="M12 14.813c-0.227 0-0.453-0.040-0.667-0.133-0.613-0.267-1-0.867-1-1.52v-10.493c0-0.547 0.453-1 1-1h9.333c0.547 0 1 0.453 1 1v10.48c0 0.667-0.387 1.267-1 1.52-0.6 0.267-1.307 0.147-1.8-0.307l-2.867-2.627-2.867 2.64c-0.32 0.293-0.72 0.44-1.133 0.44zM16 9.613c0.4 0 0.813 0.147 1.133 0.44l2.533 2.333v-8.72h-7.333v8.72l2.533-2.333c0.32-0.293 0.733-0.44 1.133-0.44z"></path>
<path d="M23.333 19.667h-5.667c-0.547 0-1-0.453-1-1s0.453-1 1-1h5.667c0.547 0 1 0.453 1 1s-0.453 1-1 1z"></path>
<path d="M23.333 25h-11.333c-0.547 0-1-0.453-1-1s0.453-1 1-1h11.333c0.547 0 1 0.453 1 1s-0.453 1-1 1z"></path>
</symbol>
<symbol id="icon-sitemap" viewBox="0 0 32 32">
<path stroke-linejoin="round" stroke-linecap="round" stroke-miterlimit="4" stroke-width="1.6" d="M3.053 10.373v12.973c0 2.533 1.8 3.573 3.987 2.32l3.133-1.787c0.68-0.387 1.813-0.427 2.52-0.067l7 3.507c0.707 0.347 1.84 0.32 2.52-0.067l5.773-3.307c0.733-0.427 1.347-1.467 1.347-2.32v-12.973c0-2.533-1.8-3.573-3.987-2.32l-3.133 1.787c-0.68 0.387-1.813 0.427-2.52 0.067l-7-3.493c-0.707-0.347-1.84-0.32-2.52 0.067l-5.773 3.307c-0.747 0.427-1.347 1.467-1.347 2.307z"></path>
<path stroke-linejoin="round" stroke-linecap="round" stroke-miterlimit="4" stroke-width="1.6" d="M11.413 5.333v17.333"></path>
<path stroke-linejoin="round" stroke-linecap="round" stroke-miterlimit="4" stroke-width="1.6" d="M20.974 8.827v17.84"></path>
</symbol>
<symbol id="icon-rejected" viewBox="0 0 32 32">
<path fill="#ea5455" style="fill: var(--color1, #ea5455)" d="M16 1.188c-8.163 0-14.815 6.652-14.815 14.815s6.652 14.815 14.815 14.815c8.163 0 14.815-6.652 14.815-14.815s-6.652-14.815-14.815-14.815zM20.978 19.41c0.43 0.43 0.43 1.141 0 1.57-0.222 0.222-0.504 0.326-0.785 0.326s-0.563-0.104-0.785-0.326l-3.407-3.407-3.407 3.407c-0.222 0.222-0.504 0.326-0.785 0.326s-0.563-0.104-0.785-0.326c-0.43-0.43-0.43-1.141 0-1.57l3.407-3.407-3.407-3.407c-0.43-0.43-0.43-1.141 0-1.57s1.141-0.43 1.57 0l3.407 3.407 3.407-3.407c0.43-0.43 1.141-0.43 1.57 0s0.43 1.141 0 1.57l-3.407 3.407 3.407 3.407z"></path>
</symbol>
<symbol id="icon-approve-waitting" viewBox="0 0 32 32">
<path fill="#ff9f43" style="fill: var(--color2, #ff9f43)" d="M16 1.188c-8.163 0-14.815 6.652-14.815 14.815s6.652 14.815 14.815 14.815 14.815-6.652 14.815-14.815c0-8.163-6.652-14.815-14.815-14.815zM21.807 17.113h-11.852c-0.607 0-1.111-0.504-1.111-1.111s0.504-1.111 1.111-1.111h11.852c0.607 0 1.111 0.504 1.111 1.111s-0.489 1.111-1.111 1.111z"></path>
</symbol>
<symbol id="icon-approve-success" viewBox="0 0 32 32">
<path fill="#28c76f" style="fill: var(--color3, #28c76f)" d="M16 1.188c-8.163 0-14.815 6.652-14.815 14.815s6.652 14.815 14.815 14.815 14.815-6.652 14.815-14.815c0-8.163-6.652-14.815-14.815-14.815zM23.082 12.595l-8.4 8.4c-0.207 0.207-0.489 0.326-0.785 0.326s-0.578-0.119-0.785-0.326l-4.193-4.193c-0.43-0.43-0.43-1.141 0-1.57s1.141-0.43 1.57 0l3.407 3.407 7.615-7.615c0.43-0.43 1.141-0.43 1.57 0s0.43 1.126 0 1.57z"></path>
</symbol>
<symbol id="icon-minus-square" viewBox="0 0 32 32">
<path d="M22.704 0h-13.408c-5.824 0-9.296 3.472-9.296 9.296v13.392c0 5.84 3.472 9.312 9.296 9.312h13.392c5.824 0 9.296-3.472 9.296-9.296v-13.408c0.016-5.824-3.456-9.296-9.28-9.296zM22.4 17.2h-12.8c-0.656 0-1.2-0.544-1.2-1.2s0.544-1.2 1.2-1.2h12.8c0.656 0 1.2 0.544 1.2 1.2s-0.544 1.2-1.2 1.2z"></path>
</symbol>
<symbol id="icon-add-square" viewBox="0 0 32 32">
<path d="M21.587 2.667h-11.173c-4.853 0-7.747 2.893-7.747 7.747v11.16c0 4.867 2.893 7.76 7.747 7.76h11.16c4.853 0 7.747-2.893 7.747-7.747v-11.173c0.013-4.853-2.88-7.747-7.733-7.747zM21.333 17h-4.333v4.333c0 0.547-0.453 1-1 1s-1-0.453-1-1v-4.333h-4.333c-0.547 0-1-0.453-1-1s0.453-1 1-1h4.333v-4.333c0-0.547 0.453-1 1-1s1 0.453 1 1v4.333h4.333c0.547 0 1 0.453 1 1s-0.453 1-1 1z"></path>
</symbol>
<symbol id="icon-task-square" viewBox="0 0 32 32">
<path d="M23.492 12.827h-7c-0.547 0-1-0.453-1-1s0.453-1 1-1h7c0.547 0 1 0.453 1 1s-0.44 1-1 1z"></path>
<path d="M9.494 13.84c-0.253 0-0.507-0.093-0.707-0.293l-1-1c-0.387-0.387-0.387-1.027 0-1.413s1.027-0.387 1.413 0l0.293 0.293 2.293-2.293c0.387-0.387 1.027-0.387 1.413 0s0.387 1.027 0 1.413l-3 3c-0.187 0.187-0.44 0.293-0.707 0.293z"></path>
<path d="M23.492 22.16h-7c-0.547 0-1-0.453-1-1s0.453-1 1-1h7c0.547 0 1 0.453 1 1s-0.44 1-1 1z"></path>
<path d="M9.494 23.173c-0.253 0-0.507-0.093-0.707-0.293l-1-1c-0.387-0.387-0.387-1.027 0-1.413s1.027-0.387 1.413 0l0.293 0.293 2.293-2.293c0.387-0.387 1.027-0.387 1.413 0s0.387 1.027 0 1.413l-3 3c-0.187 0.187-0.44 0.293-0.707 0.293z"></path>
<path d="M20 30.333h-8c-7.24 0-10.333-3.093-10.333-10.333v-8c0-7.24 3.093-10.333 10.333-10.333h8c7.24 0 10.333 3.093 10.333 10.333v8c0 7.24-3.093 10.333-10.333 10.333zM12 3.667c-6.147 0-8.333 2.187-8.333 8.333v8c0 6.147 2.187 8.333 8.333 8.333h8c6.147 0 8.333-2.187 8.333-8.333v-8c0-6.147-2.187-8.333-8.333-8.333h-8z"></path>
</symbol>
<symbol id="icon-programming-arrow" viewBox="0 0 32 32">
<path d="M25.333 22.333c-0.547 0-1-0.453-1-1v-12.667c0-0.92-0.747-1.667-1.667-1.667h-6c-0.547 0-1-0.453-1-1s0.453-1 1-1h6c2.027 0 3.667 1.64 3.667 3.667v12.667c0 0.547-0.453 1-1 1z"></path>
<path d="M20 10.333c-0.227 0-0.453-0.080-0.64-0.227l-4-3.333c-0.227-0.187-0.36-0.467-0.36-0.773s0.133-0.573 0.36-0.773l4-3.333c0.427-0.36 1.053-0.293 1.413 0.133s0.293 1.053-0.133 1.413l-3.080 2.56 3.080 2.56c0.427 0.36 0.48 0.987 0.133 1.413-0.2 0.24-0.493 0.36-0.773 0.36z"></path>
<path d="M6.667 22.333c-0.547 0-1-0.453-1-1v-9.333c0-0.547 0.453-1 1-1s1 0.453 1 1v9.333c0 0.547-0.453 1-1 1z"></path>
<path d="M7 12.333c-2.947 0-5.333-2.387-5.333-5.333s2.387-5.333 5.333-5.333c2.947 0 5.333 2.387 5.333 5.333s-2.387 5.333-5.333 5.333zM7 3.667c-1.84 0-3.333 1.493-3.333 3.333s1.493 3.333 3.333 3.333c1.84 0 3.333-1.493 3.333-3.333s-1.493-3.333-3.333-3.333z"></path>
<path d="M6.667 30.333c-2.76 0-5-2.24-5-5s2.24-5 5-5c2.76 0 5 2.24 5 5s-2.24 5-5 5zM6.667 22.333c-1.653 0-3 1.347-3 3s1.347 3 3 3c1.653 0 3-1.347 3-3s-1.347-3-3-3z"></path>
<path d="M25.333 30.333c-2.76 0-5-2.24-5-5s2.24-5 5-5c2.76 0 5 2.24 5 5s-2.24 5-5 5zM25.333 22.333c-1.653 0-3 1.347-3 3s1.347 3 3 3c1.653 0 3-1.347 3-3s-1.347-3-3-3z"></path>
</symbol>
<symbol id="icon-refresh-square" viewBox="0 0 32 32">
<path d="M20 30.333h-8c-7.24 0-10.333-3.093-10.333-10.333v-8c0-7.24 3.093-10.333 10.333-10.333h8c7.24 0 10.333 3.093 10.333 10.333v8c0 7.24-3.093 10.333-10.333 10.333zM12 3.667c-6.147 0-8.333 2.187-8.333 8.333v8c0 6.147 2.187 8.333 8.333 8.333h8c6.147 0 8.333-2.187 8.333-8.333v-8c0-6.147-2.187-8.333-8.333-8.333h-8z"></path>
<path fill="none" stroke="#292d32" style="stroke: var(--color4, #292d32)" stroke-linejoin="round" stroke-linecap="round" stroke-miterlimit="4" stroke-width="2" d="M23.333 16c0 4.053-3.28 7.333-7.333 7.333s-6.52-4.080-6.52-4.080M9.48 19.253h3.307M9.48 19.253v3.667M8.667 16c0-4.053 3.253-7.333 7.333-7.333 4.893 0 7.333 4.080 7.333 4.080M23.333 12.747v-3.667M23.333 12.747h-3.253"></path>
</symbol>
<symbol id="icon-user-square" viewBox="0 0 32 32">
<path d="M20.001 30.333h-8c-1.76 0-3.227-0.173-4.467-0.547-0.453-0.133-0.747-0.573-0.72-1.040 0.333-3.987 4.373-7.12 9.187-7.12s8.84 3.12 9.187 7.12c0.040 0.48-0.253 0.907-0.72 1.040-1.24 0.373-2.707 0.547-4.467 0.547zM8.961 28.080c0.88 0.173 1.88 0.253 3.040 0.253h8c1.16 0 2.16-0.080 3.040-0.253-0.707-2.56-3.627-4.453-7.040-4.453s-6.333 1.893-7.040 4.453z"></path>
<path stroke-linejoin="round" stroke-linecap="round" stroke-miterlimit="4" stroke-width="2" d="M20 2.667h-8c-6.667 0-9.333 2.667-9.333 9.333v8c0 5.040 1.52 7.8 5.147 8.827 0.293-3.467 3.853-6.2 8.187-6.2s7.893 2.733 8.187 6.2c3.627-1.027 5.147-3.787 5.147-8.827v-8c0-6.667-2.667-9.333-9.333-9.333zM16 18.893c-2.64 0-4.773-2.147-4.773-4.787s2.133-4.773 4.773-4.773c2.64 0 4.773 2.133 4.773 4.773s-2.133 4.787-4.773 4.787z"></path>
<path d="M16 19.893c-3.187 0-5.773-2.6-5.773-5.787s2.587-5.773 5.773-5.773c3.187 0 5.773 2.587 5.773 5.773s-2.587 5.787-5.773 5.787zM16 10.333c-2.080 0-3.773 1.693-3.773 3.773 0 2.093 1.693 3.787 3.773 3.787s3.773-1.693 3.773-3.787c0-2.080-1.693-3.773-3.773-3.773z"></path>
</symbol>
<symbol id="icon-monitor-mobile" viewBox="0 0 32 32">
<path stroke-linejoin="round" stroke-linecap="round" stroke-miterlimit="4" stroke-width="1.6" d="M13.333 22.6h-5.053c-4.493 0-5.613-1.12-5.613-5.613v-8c0-4.493 1.12-5.613 5.613-5.613h14.040c4.493 0 5.613 1.12 5.613 5.613"></path>
<path stroke-linejoin="round" stroke-linecap="round" stroke-miterlimit="4" stroke-width="1.6" d="M13.333 28.627v-6.027"></path>
<path stroke-linejoin="round" stroke-linecap="round" stroke-miterlimit="4" stroke-width="1.6" d="M2.667 17.267h10.667"></path>
<path stroke-linejoin="round" stroke-linecap="round" stroke-miterlimit="4" stroke-width="1.6" d="M8.987 28.627h4.347"></path>
<path stroke-linejoin="round" stroke-linecap="round" stroke-miterlimit="4" stroke-width="1.6" d="M29.332 17.067v7.613c0 3.16-0.787 3.947-3.947 3.947h-4.733c-3.16 0-3.947-0.787-3.947-3.947v-7.613c0-3.16 0.787-3.947 3.947-3.947h4.733c3.16 0 3.947 0.787 3.947 3.947z"></path>
<path stroke-linejoin="round" stroke-linecap="round" stroke-miterlimit="4" stroke-width="1.6" d="M22.993 24.333h0.012"></path>
</symbol>
<symbol id="icon-message-favorite" viewBox="0 0 32 32">
<path stroke-linejoin="round" stroke-linecap="round" stroke-miterlimit="10" stroke-width="2.1333" d="M29.333 10.667v6.667c0 5.333-2.667 8-8 8h-0.667c-0.413 0-0.813 0.2-1.067 0.533l-2 2.667c-0.88 1.173-2.32 1.173-3.2 0l-2-2.667c-0.213-0.293-0.707-0.533-1.067-0.533h-0.667c-5.333 0-8-1.333-8-8v-6.667c0-5.333 2.667-8 8-8h5.333"></path>
<path stroke-linejoin="round" stroke-linecap="round" stroke-miterlimit="4" stroke-width="2.1333" d="M20.267 6.159c-0.44-1.32 0.080-2.947 1.52-3.4 0.747-0.227 1.68-0.040 2.213 0.667 0.507-0.733 1.467-0.893 2.213-0.667 1.44 0.44 1.96 2.080 1.52 3.4-0.68 2.093-3.067 3.173-3.733 3.173s-3.027-1.067-3.733-3.173z"></path>
<path stroke-linejoin="round" stroke-linecap="round" stroke-miterlimit="4" stroke-width="2.6667" d="M21.329 14.667h0.012"></path>
<path stroke-linejoin="round" stroke-linecap="round" stroke-miterlimit="4" stroke-width="2.6667" d="M15.994 14.667h0.012"></path>
<path stroke-linejoin="round" stroke-linecap="round" stroke-miterlimit="4" stroke-width="2.6667" d="M10.659 14.667h0.012"></path>
</symbol>
<symbol id="icon-send-square" viewBox="0 0 32 32">
<path stroke-linejoin="round" stroke-linecap="round" stroke-miterlimit="4" stroke-width="2.1333" d="M12 29.333h8c6.667 0 9.333-2.667 9.333-9.333v-8c0-6.667-2.667-9.333-9.333-9.333h-8c-6.667 0-9.333 2.667-9.333 9.333v8c0 6.667 2.667 9.333 9.333 9.333z"></path>
<path stroke-linejoin="round" stroke-linecap="round" stroke-miterlimit="4" stroke-width="2.1333" d="M14.12 10.24h5.653v5.667"></path>
<path stroke-linejoin="round" stroke-linecap="round" stroke-miterlimit="4" stroke-width="2.1333" d="M19.773 10.24l-7.547 7.547"></path>
<path stroke-linejoin="round" stroke-linecap="round" stroke-miterlimit="4" stroke-width="2.1333" d="M8 22.014c5.187 1.733 10.813 1.733 16 0"></path>
</symbol>
<symbol id="icon-calendar" viewBox="0 0 32 32">
<path stroke-linejoin="round" stroke-linecap="round" stroke-miterlimit="10" stroke-width="2.1333" d="M10.667 2.667v4"></path>
<path stroke-linejoin="round" stroke-linecap="round" stroke-miterlimit="10" stroke-width="2.1333" d="M21.333 2.667v4"></path>
<path stroke-linejoin="round" stroke-linecap="round" stroke-miterlimit="10" stroke-width="2.1333" d="M21.333 4.667c4.44 0.24 6.667 1.933 6.667 8.2v8.24c0 5.493-1.333 8.24-8 8.24h-8c-6.667 0-8-2.747-8-8.24v-8.24c0-6.267 2.227-7.947 6.667-8.2h10.667z"></path>
<path stroke-linejoin="round" stroke-linecap="round" stroke-miterlimit="10" stroke-width="2.1333" d="M27.667 23.465h-23.333"></path>
<path d="M16 11c-1.64 0-3.027 0.893-3.027 2.627 0 0.827 0.387 1.453 0.973 1.853-0.813 0.48-1.28 1.253-1.28 2.16 0 1.653 1.267 2.68 3.333 2.68 2.053 0 3.333-1.027 3.333-2.68 0-0.907-0.467-1.693-1.293-2.16 0.6-0.413 0.973-1.027 0.973-1.853 0-1.733-1.373-2.627-3.013-2.627zM16 14.787c-0.693 0-1.2-0.413-1.2-1.067 0-0.667 0.507-1.053 1.2-1.053s1.2 0.387 1.2 1.053c0 0.653-0.507 1.067-1.2 1.067zM16 18.667c-0.88 0-1.52-0.44-1.52-1.24s0.64-1.227 1.52-1.227c0.88 0 1.52 0.44 1.52 1.227 0 0.8-0.64 1.24-1.52 1.24z"></path>
</symbol>
<symbol id="icon-dashboard" viewBox="0 0 32 32">
<path stroke-linejoin="round" stroke-linecap="round" stroke-miterlimit="4" stroke-width="2.1333" d="M29.333 14.533v-9.067c0-2-0.853-2.8-2.973-2.8h-5.387c-2.12 0-2.973 0.8-2.973 2.8v9.067c0 2 0.853 2.8 2.973 2.8h5.387c2.12 0 2.973-0.8 2.973-2.8z"></path>
<path stroke-linejoin="round" stroke-linecap="round" stroke-miterlimit="4" stroke-width="2.1333" d="M29.333 26.533v-2.4c0-2-0.853-2.8-2.973-2.8h-5.387c-2.12 0-2.973 0.8-2.973 2.8v2.4c0 2 0.853 2.8 2.973 2.8h5.387c2.12 0 2.973-0.8 2.973-2.8z"></path>
<path stroke-linejoin="round" stroke-linecap="round" stroke-miterlimit="4" stroke-width="2.1333" d="M14 17.467v9.067c0 2-0.853 2.8-2.973 2.8h-5.387c-2.12 0-2.973-0.8-2.973-2.8v-9.067c0-2 0.853-2.8 2.973-2.8h5.387c2.12 0 2.973 0.8 2.973 2.8z"></path>
<path stroke-linejoin="round" stroke-linecap="round" stroke-miterlimit="4" stroke-width="2.1333" d="M14 5.467v2.4c0 2-0.853 2.8-2.973 2.8h-5.387c-2.12 0-2.973-0.8-2.973-2.8v-2.4c0-2 0.853-2.8 2.973-2.8h5.387c2.12 0 2.973 0.8 2.973 2.8z"></path>
</symbol>
<symbol id="icon-peoples" viewBox="0 0 32 32">
<path stroke-linejoin="round" stroke-linecap="round" stroke-miterlimit="4" stroke-width="1.6" d="M24 9.547c-0.080-0.013-0.173-0.013-0.253 0-1.84-0.067-3.307-1.573-3.307-3.44 0-1.907 1.533-3.44 3.44-3.44s3.44 1.547 3.44 3.44c-0.013 1.867-1.48 3.373-3.32 3.44z"></path>
<path stroke-linejoin="round" stroke-linecap="round" stroke-miterlimit="4" stroke-width="1.6" d="M22.627 19.253c1.827 0.307 3.84-0.013 5.253-0.96 1.88-1.253 1.88-3.307 0-4.56-1.427-0.947-3.467-1.267-5.293-0.947"></path>
<path stroke-linejoin="round" stroke-linecap="round" stroke-miterlimit="4" stroke-width="1.6" d="M7.961 9.547c0.080-0.013 0.173-0.013 0.253 0 1.84-0.067 3.307-1.573 3.307-3.44 0-1.907-1.533-3.44-3.44-3.44s-3.44 1.547-3.44 3.44c0.013 1.867 1.48 3.373 3.32 3.44z"></path>
<path stroke-linejoin="round" stroke-linecap="round" stroke-miterlimit="4" stroke-width="1.6" d="M9.334 19.253c-1.827 0.307-3.84-0.013-5.253-0.96-1.88-1.253-1.88-3.307 0-4.56 1.427-0.947 3.467-1.267 5.293-0.947"></path>
<path stroke-linejoin="round" stroke-linecap="round" stroke-miterlimit="4" stroke-width="1.6" d="M16 19.507c-0.080-0.013-0.173-0.013-0.253 0-1.84-0.067-3.307-1.573-3.307-3.44 0-1.907 1.533-3.44 3.44-3.44s3.44 1.547 3.44 3.44c-0.013 1.867-1.48 3.387-3.32 3.44z"></path>
<path stroke-linejoin="round" stroke-linecap="round" stroke-miterlimit="4" stroke-width="1.6" d="M12.12 23.707c-1.88 1.253-1.88 3.307 0 4.56 2.133 1.427 5.627 1.427 7.76 0 1.88-1.253 1.88-3.307 0-4.56-2.12-1.413-5.627-1.413-7.76 0z"></path>
</symbol>
<symbol id="icon-watch" viewBox="0 0 32 32">
<path stroke-linejoin="round" stroke-linecap="round" stroke-miterlimit="10" stroke-width="1.6" d="M11.333 25.333h9.333c3.107 0 4.667-1.56 4.667-4.667v-9.333c0-3.107-1.56-4.667-4.667-4.667h-9.333c-3.107 0-4.667 1.56-4.667 4.667v9.333c0 3.107 1.56 4.667 4.667 4.667z"></path>
<path stroke-linejoin="round" stroke-linecap="round" stroke-miterlimit="10" stroke-width="1.6" d="M21.333 2.667h-10.667"></path>
<path stroke-linejoin="round" stroke-linecap="round" stroke-miterlimit="10" stroke-width="1.6" d="M21.333 29.333h-10.667"></path>
<path stroke-linejoin="round" stroke-linecap="round" stroke-miterlimit="10" stroke-width="1.6" d="M15.333 12.667v4h4"></path>
</symbol>
<symbol id="icon-projects" viewBox="0 0 32 32">
<path stroke-linejoin="round" stroke-linecap="round" stroke-miterlimit="10" stroke-width="1.6" d="M28 9.333v13.333c0 4-2 6.667-6.667 6.667h-10.667c-4.667 0-6.667-2.667-6.667-6.667v-13.333c0-4 2-6.667 6.667-6.667h10.667c4.667 0 6.667 2.667 6.667 6.667z"></path>
<path stroke-linejoin="round" stroke-linecap="round" stroke-miterlimit="10" stroke-width="1.6" d="M19.333 6v2.667c0 1.467 1.2 2.667 2.667 2.667h2.667"></path>
<path stroke-linejoin="round" stroke-linecap="round" stroke-miterlimit="10" stroke-width="1.6" d="M13.333 17.333l-2.667 2.667 2.667 2.667"></path>
<path stroke-linejoin="round" stroke-linecap="round" stroke-miterlimit="10" stroke-width="1.6" d="M18.667 17.333l2.667 2.667-2.667 2.667"></path>
</symbol>
</defs>
</svg>
