<svg aria-hidden="true" style="position: absolute; width: 0; height: 0; overflow: hidden;" version="1.1" xmlns="http://www.w3.org/2000/svg" xmlns:xlink="http://www.w3.org/1999/xlink">
<defs>
<symbol id="icon-function" viewBox="0 0 32 32">
<path stroke-linejoin="miter" stroke-linecap="butt" stroke-miterlimit="4" stroke-width="2" d="M3.333 11.889v-6.556c0-1.105 0.895-2 2-2h6.556c1.105 0 2 0.895 2 2v6.556c0 1.105-0.895 2-2 2h-6.556c-1.105 0-2-0.895-2-2z"></path>
<path stroke-linejoin="miter" stroke-linecap="butt" stroke-miterlimit="4" stroke-width="2" d="M3.333 26.667v-6.556c0-1.105 0.895-2 2-2h6.556c1.105 0 2 0.895 2 2v6.556c0 1.105-0.895 2-2 2h-6.556c-1.105 0-2-0.895-2-2z"></path>
<path stroke-linejoin="miter" stroke-linecap="butt" stroke-miterlimit="4" stroke-width="2" d="M18.111 11.889v-6.556c0-1.105 0.895-2 2-2h6.556c1.105 0 2 0.895 2 2v6.556c0 1.105-0.895 2-2 2h-6.556c-1.105 0-2-0.895-2-2z"></path>
<path stroke-linejoin="miter" stroke-linecap="butt" stroke-miterlimit="4" stroke-width="2" d="M18.111 26.667v-6.556c0-1.105 0.895-2 2-2h6.556c1.105 0 2 0.895 2 2v6.556c0 1.105-0.895 2-2 2h-6.556c-1.105 0-2-0.895-2-2z"></path>
</symbol>
<symbol id="icon-list" viewBox="0 0 32 32">
<path fill="none" stroke="#121219" style="stroke: var(--color1, #121219)" stroke-linejoin="miter" stroke-linecap="round" stroke-miterlimit="4" stroke-width="2" d="M10.667 8h17.333"></path>
<path fill="none" stroke="#121219" style="stroke: var(--color1, #121219)" stroke-linejoin="miter" stroke-linecap="round" stroke-miterlimit="4" stroke-width="2" d="M10.667 16h17.333"></path>
<path fill="none" stroke="#121219" style="stroke: var(--color1, #121219)" stroke-linejoin="miter" stroke-linecap="round" stroke-miterlimit="4" stroke-width="2" d="M10.667 24h17.333"></path>
<path d="M4.333 17.667c0.92 0 1.667-0.746 1.667-1.667s-0.746-1.667-1.667-1.667c-0.92 0-1.667 0.746-1.667 1.667s0.746 1.667 1.667 1.667z"></path>
<path d="M4.333 9.667c0.92 0 1.667-0.746 1.667-1.667s-0.746-1.667-1.667-1.667c-0.92 0-1.667 0.746-1.667 1.667s0.746 1.667 1.667 1.667z"></path>
<path d="M4.333 25.667c0.92 0 1.667-0.746 1.667-1.667s-0.746-1.667-1.667-1.667c-0.92 0-1.667 0.746-1.667 1.667s0.746 1.667 1.667 1.667z"></path>
</symbol>
<symbol id="icon-compass" viewBox="0 0 32 32">
<path stroke-linejoin="miter" stroke-linecap="round" stroke-miterlimit="4" stroke-width="2" d="M24.471 28.071l-7.481-4.265c-0.614-0.35-1.367-0.35-1.981 0l-7.48 4.265c-0.302 0.172-0.643 0.265-0.991 0.26-1.016-0.017-1.931-0.135-2.162-0.937-0.080-0.278 0.007-0.571 0.128-0.833l10.272-22.261c0.131-0.284 0.335-0.534 0.643-0.587 0.352-0.061 0.815-0.060 1.165 0.001 0.303 0.053 0.504 0.301 0.633 0.58l10.279 22.267c0.121 0.263 0.208 0.555 0.128 0.833-0.231 0.802-1.146 0.919-2.162 0.937-0.347 0.006-0.689-0.088-0.991-0.26z"></path>
<path stroke-linejoin="miter" stroke-linecap="round" stroke-miterlimit="4" stroke-width="2" d="M15.999 17.341v5.496"></path>
</symbol>
<symbol id="icon-deadline" viewBox="0 0 32 32">
<path d="M28.333 8v11.333h-2v-11.333h2zM2.333 24v-16h2v16h-2zM6 4.333h18.667v2h-18.667v-2zM6 25.667h10v2h-10v-2zM2.333 8c0-2.025 1.642-3.667 3.667-3.667v2c-0.92 0-1.667 0.746-1.667 1.667h-2zM4.333 24c0 0.921 0.746 1.667 1.667 1.667v2c-2.025 0-3.667-1.642-3.667-3.667h2zM26.333 8c0-0.92-0.746-1.667-1.667-1.667v-2c2.025 0 3.667 1.642 3.667 3.667h-2z"></path>
<path fill="none" stroke="#121219" style="stroke: var(--color1, #121219)" stroke-linejoin="miter" stroke-linecap="round" stroke-miterlimit="4" stroke-width="2" d="M22 2.667v5.333"></path>
<path fill="none" stroke="#121219" style="stroke: var(--color1, #121219)" stroke-linejoin="miter" stroke-linecap="round" stroke-miterlimit="4" stroke-width="2" d="M8.667 2.667v5.333"></path>
<path fill="none" stroke="#121219" style="stroke: var(--color1, #121219)" stroke-linejoin="miter" stroke-linecap="butt" stroke-miterlimit="4" stroke-width="2" d="M28.667 22.667c0-3.682-2.985-6.667-6.667-6.667s-6.667 2.985-6.667 6.667c0 3.682 2.985 6.667 6.667 6.667s6.667-2.985 6.667-6.667z"></path>
<path fill="none" stroke="#121219" style="stroke: var(--color1, #121219)" stroke-linejoin="round" stroke-linecap="round" stroke-miterlimit="4" stroke-width="2" d="M22 19.423v3.243l2.162 2.162"></path>
</symbol>
<symbol id="icon-mouse" viewBox="0 0 31 32">
<path d="M25.597 11.597v8.806h-2v-8.806h2zM5.069 20.403v-8.806h2v8.806h-2zM15.333 30.667c-5.669 0-10.264-4.595-10.264-10.264h2c0 4.564 3.7 8.264 8.264 8.264v2zM25.597 20.403c0 5.669-4.595 10.264-10.264 10.264v-2c4.564 0 8.264-3.7 8.264-8.264h2zM15.333 1.333c5.669 0 10.264 4.595 10.264 10.264h-2c0-4.564-3.7-8.264-8.264-8.264v-2zM15.333 3.333c-4.564 0-8.264 3.7-8.264 8.264h-2c0-5.669 4.595-10.264 10.264-10.264v2z"></path>
<path fill="none" stroke="#121219" style="stroke: var(--color1, #121219)" stroke-linejoin="miter" stroke-linecap="round" stroke-miterlimit="4" stroke-width="2" d="M15.333 6.433v6.15"></path>
</symbol>
<symbol id="icon-delivery" viewBox="0 0 32 32">
<path fill="none" stroke="#121219" style="stroke: var(--color1, #121219)" stroke-linejoin="miter" stroke-linecap="butt" stroke-miterlimit="4" stroke-width="2" d="M3.333 29.333h15.333c1.841 0 3.333-1.492 3.333-3.333v0c0-1.841-1.492-3.333-3.333-3.333h-15.333"></path>
<path fill="none" stroke="#121219" style="stroke: var(--color1, #121219)" stroke-linejoin="miter" stroke-linecap="butt" stroke-miterlimit="4" stroke-width="2" d="M3.333 18.667h2c1.841 0 3.333-1.492 3.333-3.333v0c0-1.841-1.492-3.333-3.333-3.333h-2"></path>
<path d="M11 1.667h15.333v2h-15.333v-2zM29.667 5v15.333h-2v-15.333h2zM11 21.667h15.333v2h-15.333v-2zM7.667 20.333v-15.333h2v15.333h-2zM11 23.667c-1.841 0-3.333-1.492-3.333-3.333h2c0 0.736 0.597 1.333 1.333 1.333v2zM29.667 20.333c0 1.841-1.492 3.333-3.333 3.333v-2c0.736 0 1.333-0.597 1.333-1.333h2zM26.333 1.667c1.841 0 3.333 1.492 3.333 3.333h-2c0-0.736-0.597-1.333-1.333-1.333v-2zM11 3.667c-0.736 0-1.333 0.597-1.333 1.333h-2c0-1.841 1.492-3.333 3.333-3.333v2z"></path>
<path fill="none" stroke="#121219" style="stroke: var(--color1, #121219)" stroke-linejoin="miter" stroke-linecap="butt" stroke-miterlimit="4" stroke-width="2" d="M15.87 11.363l2.697-1.959c0.059-0.042 0.138-0.042 0.196 0l2.688 1.958c0.11 0.080 0.265 0.002 0.265-0.135v-8.228c0-0.184-0.149-0.333-0.333-0.333h-5.444c-0.184 0-0.333 0.149-0.333 0.333v8.229c0 0.136 0.154 0.215 0.265 0.135z"></path>
</symbol>
<symbol id="icon-download" viewBox="0 0 32 32">
<path stroke-linejoin="miter" stroke-linecap="round" stroke-miterlimit="4" stroke-width="2" d="M3.333 26.551h25.333"></path>
<path stroke-linejoin="round" stroke-linecap="round" stroke-miterlimit="4" stroke-width="2" d="M16 5.44v14.074M16 19.514l7.037-5.213M16 19.514l-7.037-5.213"></path>
</symbol>
<symbol id="icon-heart" viewBox="0 0 32 32">
<path stroke-linejoin="miter" stroke-linecap="round" stroke-miterlimit="4" stroke-width="2" d="M16 8.485l1.584-1.59c2.634-2.643 6.718-2.724 9.442-0.186v0c3.065 2.856 3.224 7.883 0.347 10.953l-3.212 3.427-6.47 5.996c-0.97 0.899-2.412 0.899-3.382 0.001l-2.16-2.001"></path>
<path stroke-linejoin="miter" stroke-linecap="round" stroke-miterlimit="4" stroke-width="2" d="M15.999 8.486l-1.583-1.589c-2.634-2.643-6.718-2.724-9.442-0.186v0c-3.065 2.856-3.224 7.883-0.347 10.953l3.213 3.427 6.469 5.996c0.97 0.899 2.412 0.899 3.382 0.001l2.161-2.001"></path>
</symbol>
<symbol id="icon-infor" viewBox="0 0 32 32">
<path fill="none" stroke="#121219" style="stroke: var(--color1, #121219)" stroke-linejoin="miter" stroke-linecap="butt" stroke-miterlimit="4" stroke-width="2" d="M29.333 16c0-7.364-5.97-13.333-13.333-13.333s-13.333 5.97-13.333 13.333c0 7.364 5.97 13.333 13.333 13.333s13.333-5.97 13.333-13.333z"></path>
<path fill="none" stroke="#121219" style="stroke: var(--color1, #121219)" stroke-linejoin="miter" stroke-linecap="round" stroke-miterlimit="4" stroke-width="2" d="M16 22.333v-6.667"></path>
<path d="M16 9.667c0.736 0 1.333 0.597 1.333 1.333s-0.597 1.333-1.333 1.333c-0.736 0-1.333-0.597-1.333-1.333s0.597-1.333 1.333-1.333z"></path>
</symbol>
<symbol id="icon-send" viewBox="0 0 32 32">
<path stroke-linejoin="miter" stroke-linecap="round" stroke-miterlimit="4" stroke-width="2" d="M3.604 24.867l4.57-7.863c0.361-0.621 0.361-1.389-0-2.010l-4.57-7.862c-0.177-0.305-0.28-0.653-0.251-1.005 0.078-0.941 0.399-1.612 1.261-1.771 0.277-0.051 0.559 0.023 0.816 0.139l22.256 9.973c0.292 0.131 0.539 0.343 0.588 0.659 0.078 0.499 0.077 1.257-0.001 1.753-0.049 0.312-0.293 0.521-0.581 0.65l-22.263 9.975c-0.257 0.115-0.539 0.19-0.816 0.139-0.862-0.159-1.183-0.83-1.261-1.771-0.029-0.352 0.073-0.7 0.25-1.005z"></path>
<path stroke-linejoin="miter" stroke-linecap="round" stroke-miterlimit="4" stroke-width="2" d="M28 16l-18.836-0"></path>
</symbol>
<symbol id="icon-upload" viewBox="0 0 32 32">
<path stroke-linejoin="miter" stroke-linecap="round" stroke-miterlimit="4" stroke-width="2" d="M3.333 26.551h25.333"></path>
<path stroke-linejoin="round" stroke-linecap="round" stroke-miterlimit="4" stroke-width="2" d="M16 19.514v-14.074M16 5.44l-7.037 5.213M16 5.44l7.037 5.213"></path>
</symbol>
<symbol id="icon-user" viewBox="0 0 31 32">
<path stroke-linejoin="miter" stroke-linecap="butt" stroke-miterlimit="4" stroke-width="2" d="M21.083 8.667c0 3.498-2.717 6.333-6.069 6.333s-6.069-2.836-6.069-6.333 2.717-6.333 6.069-6.333c3.352 0 6.069 2.836 6.069 6.333z"></path>
<path stroke-linejoin="miter" stroke-linecap="butt" stroke-miterlimit="4" stroke-width="2" d="M28 29.333v-2.667c0-4.418-3.582-8-8-8h-8c-4.418 0-8 3.582-8 8v2.667"></path>
</symbol>
<symbol id="icon-search" viewBox="0 0 32 32">
<path stroke-linejoin="round" stroke-linecap="round" stroke-miterlimit="4" stroke-width="2" d="M15.118 26.236c6.14 0 11.118-4.978 11.118-11.118s-4.978-11.118-11.118-11.118c-6.14 0-11.118 4.978-11.118 11.118s4.978 11.118 11.118 11.118z"></path>
<path stroke-linejoin="round" stroke-linecap="round" stroke-miterlimit="4" stroke-width="2" d="M28 28l-4-4"></path>
</symbol>
<symbol id="icon-home" viewBox="0 0 31 32">
<path d="M25.797 10.755v0zM4.869 10.755v0zM2.833 12.865v13.802h2v-13.802h-2zM6.5 30.333h17.667v-2h-17.667v2zM27.833 26.667v-13.802h-2v13.802h2zM26.409 9.964l-8.833-6.828-1.223 1.582 8.833 6.828 1.223-1.582zM13.091 3.136l-8.833 6.828 1.223 1.582 8.833-6.828-1.223-1.582zM17.576 3.136c-1.321-1.021-3.164-1.021-4.485 0l1.223 1.582c0.6-0.464 1.438-0.464 2.038 0l1.223-1.582zM27.833 12.865c0-1.135-0.526-2.207-1.424-2.901l-1.223 1.582c0.408 0.316 0.647 0.803 0.647 1.319h2zM24.167 30.333c2.025 0 3.667-1.642 3.667-3.667h-2c0 0.921-0.746 1.667-1.667 1.667v2zM2.833 26.667c0 2.025 1.642 3.667 3.667 3.667v-2c-0.92 0-1.667-0.746-1.667-1.667h-2zM4.833 12.865c0-0.516 0.239-1.003 0.647-1.319l-1.223-1.582c-0.898 0.694-1.424 1.766-1.424 2.901h2z"></path>
<path d="M9.861 29.333c0 0.552 0.448 1 1 1s1-0.448 1-1h-2zM18.806 29.333c0 0.552 0.448 1 1 1s1-0.448 1-1h-2zM11.861 29.333v-9.333h-2v9.333h2zM12.861 19h4.944v-2h-4.944v2zM18.806 20v9.333h2v-9.333h-2zM17.806 19c0.552 0 1 0.448 1 1h2c0-1.657-1.343-3-3-3v2zM11.861 20c0-0.552 0.448-1 1-1v-2c-1.657 0-3 1.343-3 3h2z"></path>
</symbol>
<symbol id="icon-bin" viewBox="0 0 31 32">
<path d="M4.75 26.667v-20h2v20h-2zM25.917 6.667v20h-2v-20h2zM22.25 30.333h-13.833v-2h13.833v2zM25.917 26.667c0 2.025-1.642 3.667-3.667 3.667v-2c0.921 0 1.667-0.746 1.667-1.667h2zM6.75 26.667c0 0.921 0.746 1.667 1.667 1.667v2c-2.025 0-3.667-1.642-3.667-3.667h2z"></path>
<path fill="none" stroke="#121219" style="stroke: var(--color1, #121219)" stroke-linejoin="miter" stroke-linecap="round" stroke-miterlimit="4" stroke-width="2" d="M12.778 14.667v6.667"></path>
<path fill="none" stroke="#121219" style="stroke: var(--color1, #121219)" stroke-linejoin="miter" stroke-linecap="round" stroke-miterlimit="4" stroke-width="2" d="M17.889 14.667v6.667"></path>
<path fill="none" stroke="#121219" style="stroke: var(--color1, #121219)" stroke-linejoin="miter" stroke-linecap="round" stroke-miterlimit="4" stroke-width="2" d="M3.333 6.667h25.333"></path>
<path fill="none" stroke="#121219" style="stroke: var(--color1, #121219)" stroke-linejoin="miter" stroke-linecap="round" stroke-miterlimit="4" stroke-width="2" d="M9.333 6.667l0.295-1.772c0.214-1.286 1.327-2.228 2.63-2.228h7.482c1.304 0 2.416 0.942 2.63 2.228l0.295 1.772"></path>
</symbol>
<symbol id="icon-notification" viewBox="0 0 31 32">
<path fill="none" stroke="#121219" style="stroke: var(--color1, #121219)" stroke-linejoin="round" stroke-linecap="round" stroke-miterlimit="4" stroke-width="2" d="M11.206 26.333c0 0.667 0.094 1.8 0.926 2.403s1.855 0.931 2.907 0.931 2.075-0.327 2.907-0.931c0.832-0.603 0.926-1.736 0.926-2.403"></path>
<path d="M6.413 13.667c0-4.971 3.862-9 8.625-9v-2c-5.822 0-10.542 4.925-10.542 11v4.143c0 0.989-0.307 1.951-0.876 2.742l-0.336 0.468c-0.357 0.497-0.885 1.373-0.685 2.402 0.319 1.638 1.685 2.219 2.814 2.431 0.931 0.175 2.013 0.162 2.874 0.152 0.187-0.002 0.364-0.004 0.526-0.004h6.225v-2h-6.225c-0.209 0-0.418 0.002-0.627 0.004-0.855 0.009-1.7 0.017-2.434-0.121-0.917-0.172-1.202-0.481-1.276-0.861-0.010-0.050-0.011-0.136 0.043-0.281 0.056-0.151 0.156-0.326 0.297-0.522l0.336-0.468c0.817-1.137 1.259-2.521 1.259-3.942v-4.143z"></path>
<path d="M23.664 13.667c0-4.971-3.863-9-8.626-9v-2c5.822 0 10.543 4.925 10.543 11v4.143c0 0.989 0.307 1.951 0.876 2.742l0.336 0.468c0.357 0.497 0.885 1.373 0.685 2.402-0.319 1.638-1.685 2.219-2.814 2.431-0.931 0.175-2.013 0.162-2.874 0.152-0.187-0.002-0.364-0.004-0.526-0.004h-6.225v-2h6.225c0.209 0 0.418 0.002 0.627 0.004 0.855 0.009 1.7 0.017 2.433-0.121 0.917-0.172 1.202-0.481 1.276-0.861 0.010-0.050 0.010-0.136-0.043-0.281-0.056-0.151-0.156-0.326-0.297-0.522l-0.336-0.468c-0.817-1.137-1.259-2.521-1.259-3.942v-4.143z"></path>
</symbol>
<symbol id="icon-edit" viewBox="0 0 32 32">
<path stroke-linejoin="round" stroke-linecap="round" stroke-miterlimit="4" stroke-width="2" d="M26.667 29.333h-21.333"></path>
<path stroke-linejoin="miter" stroke-linecap="butt" stroke-miterlimit="4" stroke-width="2" d="M23.364 13.925l-9.849 9.849c-0.342 0.342-0.77 0.584-1.239 0.701l-6.502 1.626c-0.488 0.122-0.931-0.32-0.808-0.809l1.626-6.502c0.117-0.469 0.36-0.897 0.701-1.239l9.849-9.849M23.364 13.925l3.3-3.3c1.041-1.041 1.041-2.73 0-3.771l-2.451-2.451c-1.041-1.041-2.73-1.041-3.771 0l-3.3 3.3M23.364 13.925l-6.223-6.223"></path>
</symbol>
<symbol id="icon-lock" viewBox="0 0 32 32">
<path d="M24 14.333c-0.547 0-1-0.453-1-1v-2.667c0-4.2-1.187-7-7-7s-7 2.8-7 7v2.667c0 0.547-0.453 1-1 1s-1-0.453-1-1v-2.667c0-3.867 0.933-9 9-9s9 5.133 9 9v2.667c0 0.547-0.453 1-1 1z"></path>
<path d="M22.667 30.333h-13.333c-5.88 0-7.667-1.787-7.667-7.667v-2.667c0-5.88 1.787-7.667 7.667-7.667h13.333c5.88 0 7.667 1.787 7.667 7.667v2.667c0 5.88-1.787 7.667-7.667 7.667zM9.333 14.333c-4.773 0-5.667 0.907-5.667 5.667v2.667c0 4.76 0.893 5.667 5.667 5.667h13.333c4.773 0 5.667-0.907 5.667-5.667v-2.667c0-4.76-0.893-5.667-5.667-5.667h-13.333z"></path>
<path d="M10.667 22.667c-0.173 0-0.347-0.040-0.507-0.107-0.173-0.067-0.307-0.16-0.44-0.28-0.24-0.253-0.387-0.587-0.387-0.947 0-0.173 0.040-0.347 0.107-0.507 0.067-0.173 0.16-0.307 0.28-0.44 0.133-0.12 0.267-0.213 0.44-0.28 0.48-0.213 1.080-0.093 1.453 0.28 0.12 0.133 0.213 0.28 0.28 0.44s0.107 0.333 0.107 0.507c0 0.347-0.147 0.693-0.387 0.947-0.253 0.24-0.6 0.387-0.947 0.387z"></path>
<path d="M16 22.667c-0.347 0-0.693-0.147-0.947-0.387-0.24-0.253-0.387-0.587-0.387-0.947 0-0.173 0.027-0.347 0.107-0.507 0.067-0.16 0.16-0.307 0.28-0.44 0.307-0.307 0.773-0.453 1.2-0.36 0.093 0.013 0.173 0.040 0.253 0.080 0.080 0.027 0.16 0.067 0.24 0.12 0.067 0.040 0.133 0.107 0.2 0.16 0.12 0.133 0.213 0.28 0.28 0.44s0.107 0.333 0.107 0.507c0 0.36-0.147 0.693-0.387 0.947-0.067 0.053-0.133 0.107-0.2 0.16-0.080 0.053-0.16 0.093-0.24 0.12-0.080 0.040-0.16 0.067-0.253 0.080-0.080 0.013-0.173 0.027-0.253 0.027z"></path>
<path d="M21.333 22.667c-0.36 0-0.693-0.147-0.947-0.387-0.12-0.133-0.213-0.28-0.28-0.44s-0.107-0.333-0.107-0.507c0-0.347 0.147-0.693 0.387-0.947 0.067-0.053 0.133-0.107 0.2-0.16 0.080-0.053 0.16-0.093 0.24-0.12 0.080-0.040 0.16-0.067 0.24-0.080 0.44-0.093 0.893 0.053 1.213 0.36 0.24 0.253 0.387 0.587 0.387 0.947 0 0.173-0.040 0.347-0.107 0.507-0.067 0.173-0.16 0.307-0.28 0.44-0.253 0.24-0.6 0.387-0.947 0.387z"></path>
</symbol>
<symbol id="icon-calendar-search" viewBox="0 0 32 32">
<path d="M10.667 7.667c-0.547 0-1-0.453-1-1v-4c0-0.547 0.453-1 1-1s1 0.453 1 1v4c0 0.547-0.453 1-1 1z"></path>
<path d="M21.333 7.667c-0.547 0-1-0.453-1-1v-4c0-0.547 0.453-1 1-1s1 0.453 1 1v4c0 0.547-0.453 1-1 1z"></path>
<path d="M24.267 29.533c-2.907 0-5.267-2.36-5.267-5.267s2.36-5.267 5.267-5.267c2.907 0 5.267 2.36 5.267 5.267s-2.36 5.267-5.267 5.267zM24.267 21c-1.8 0-3.267 1.467-3.267 3.267s1.467 3.267 3.267 3.267c1.8 0 3.267-1.467 3.267-3.267s-1.467-3.267-3.267-3.267z"></path>
<path d="M29.333 30.333c-0.253 0-0.507-0.093-0.707-0.293l-1.333-1.333c-0.387-0.387-0.387-1.027 0-1.413s1.027-0.387 1.413 0l1.333 1.333c0.387 0.387 0.387 1.027 0 1.413-0.2 0.2-0.453 0.293-0.707 0.293z"></path>
<path d="M11.333 19.333c-0.173 0-0.347-0.040-0.507-0.107-0.173-0.067-0.32-0.16-0.44-0.28-0.053-0.067-0.12-0.133-0.16-0.2-0.053-0.080-0.093-0.16-0.12-0.24-0.040-0.080-0.067-0.16-0.080-0.24-0.013-0.093-0.027-0.187-0.027-0.267 0-0.347 0.147-0.693 0.387-0.947 0.12-0.12 0.267-0.213 0.44-0.28 0.48-0.213 1.080-0.093 1.453 0.28 0.24 0.253 0.387 0.6 0.387 0.947 0 0.080-0.013 0.173-0.027 0.267-0.013 0.080-0.040 0.16-0.080 0.24-0.027 0.080-0.067 0.16-0.12 0.24-0.053 0.067-0.107 0.133-0.16 0.2-0.253 0.24-0.6 0.387-0.947 0.387z"></path>
<path d="M16 19.333c-0.347 0-0.693-0.147-0.947-0.387-0.24-0.253-0.387-0.587-0.387-0.947 0-0.173 0.040-0.347 0.107-0.507s0.16-0.307 0.28-0.44c0.493-0.493 1.387-0.493 1.893 0 0.24 0.253 0.387 0.6 0.387 0.947 0 0.080-0.013 0.173-0.027 0.267-0.013 0.080-0.040 0.16-0.080 0.24-0.027 0.080-0.067 0.16-0.12 0.24-0.053 0.067-0.107 0.133-0.16 0.2-0.253 0.24-0.6 0.387-0.947 0.387z"></path>
<path d="M11.333 24c-0.347 0-0.693-0.147-0.947-0.387-0.24-0.253-0.387-0.6-0.387-0.947 0-0.173 0.040-0.347 0.107-0.507 0.067-0.173 0.16-0.32 0.28-0.44 0.493-0.493 1.4-0.493 1.893 0 0.24 0.253 0.387 0.6 0.387 0.947s-0.147 0.693-0.387 0.947c-0.253 0.24-0.6 0.387-0.947 0.387z"></path>
<path d="M27.333 13.12h-22.667c-0.547 0-1-0.453-1-1s0.453-1 1-1h22.667c0.547 0 1 0.453 1 1s-0.453 1-1 1z"></path>
<path d="M17.827 30.333h-7.16c-4.867 0-7.667-2.8-7.667-7.667v-11.333c0-4.867 2.8-7.667 7.667-7.667h10.667c4.867 0 7.667 2.8 7.667 7.667v6c0 0.547-0.453 1-1 1s-1-0.453-1-1v-6c0-3.813-1.853-5.667-5.667-5.667h-10.667c-3.813 0-5.667 1.853-5.667 5.667v11.333c0 3.813 1.853 5.667 5.667 5.667h7.16c0.547 0 1 0.453 1 1s-0.453 1-1 1z"></path>
</symbol>
<symbol id="icon-timer-start" viewBox="0 0 32 32">
<path d="M16 18.333c-0.547 0-1-0.453-1-1v-6.667c0-0.547 0.453-1 1-1s1 0.453 1 1v6.667c0 0.547-0.453 1-1 1z"></path>
<path d="M16 30.333c-6.987 0-12.667-5.68-12.667-12.667s5.68-12.667 12.667-12.667c6.987 0 12.667 5.68 12.667 12.667 0 0.547-0.453 1-1 1s-1-0.453-1-1c0-5.88-4.787-10.667-10.667-10.667s-10.667 4.787-10.667 10.667c0 5.88 4.787 10.667 10.667 10.667 0.547 0 1 0.453 1 1s-0.453 1-1 1z"></path>
<path d="M20 3.667h-8c-0.547 0-1-0.453-1-1s0.453-1 1-1h8c0.547 0 1 0.453 1 1s-0.453 1-1 1z"></path>
<path d="M21.534 29.36c-0.467 0-0.893-0.107-1.28-0.333-0.88-0.507-1.387-1.533-1.387-2.813v-3.080c0-1.28 0.507-2.307 1.387-2.813s2.013-0.427 3.12 0.2l2.667 1.547c1.107 0.64 1.747 1.587 1.747 2.6s-0.64 1.96-1.747 2.6l-2.667 1.547c-0.613 0.36-1.24 0.547-1.84 0.547zM21.547 21.973c-0.107 0-0.213 0.027-0.293 0.067-0.24 0.133-0.387 0.547-0.387 1.080v3.080c0 0.533 0.147 0.947 0.387 1.080s0.667 0.067 1.12-0.2l2.667-1.547c0.467-0.267 0.747-0.6 0.747-0.867s-0.28-0.6-0.747-0.867l-2.667-1.547c-0.307-0.187-0.6-0.28-0.827-0.28z"></path>
</symbol>
<symbol id="icon-setting" viewBox="0 0 32 32">
<path d="M16 21c-2.76 0-5-2.24-5-5s2.24-5 5-5c2.76 0 5 2.24 5 5s-2.24 5-5 5zM16 13c-1.653 0-3 1.347-3 3s1.347 3 3 3c1.653 0 3-1.347 3-3s-1.347-3-3-3z"></path>
<path d="M20.28 29.587c-0.28 0-0.56-0.040-0.84-0.107-0.827-0.227-1.52-0.747-1.96-1.48l-0.16-0.267c-0.787-1.36-1.867-1.36-2.653 0l-0.147 0.253c-0.44 0.747-1.133 1.28-1.96 1.493-0.84 0.227-1.707 0.107-2.44-0.333l-2.293-1.32c-0.813-0.467-1.4-1.227-1.653-2.147-0.24-0.92-0.12-1.867 0.347-2.68 0.387-0.68 0.493-1.293 0.267-1.68s-0.8-0.613-1.587-0.613c-1.947 0-3.533-1.587-3.533-3.533v-2.347c0-1.947 1.587-3.533 3.533-3.533 0.787 0 1.36-0.227 1.587-0.613s0.133-1-0.267-1.68c-0.467-0.813-0.587-1.773-0.347-2.68 0.24-0.92 0.827-1.68 1.653-2.147l2.307-1.32c1.507-0.893 3.493-0.373 4.4 1.16l0.16 0.267c0.787 1.36 1.867 1.36 2.653 0l0.147-0.253c0.907-1.547 2.893-2.067 4.413-1.16l2.293 1.32c0.813 0.467 1.4 1.227 1.653 2.147 0.24 0.92 0.12 1.867-0.347 2.68-0.387 0.68-0.493 1.293-0.267 1.68s0.8 0.613 1.587 0.613c1.947 0 3.533 1.587 3.533 3.533v2.347c0 1.947-1.587 3.533-3.533 3.533-0.787 0-1.36 0.227-1.587 0.613s-0.133 1 0.267 1.68c0.467 0.813 0.6 1.773 0.347 2.68-0.24 0.92-0.827 1.68-1.653 2.147l-2.307 1.32c-0.507 0.28-1.053 0.427-1.613 0.427zM16 24.653c1.187 0 2.293 0.747 3.053 2.067l0.147 0.253c0.16 0.28 0.427 0.48 0.747 0.56s0.64 0.040 0.907-0.12l2.307-1.333c0.347-0.2 0.613-0.533 0.72-0.933s0.053-0.813-0.147-1.16c-0.76-1.307-0.853-2.653-0.267-3.68s1.8-1.613 3.32-1.613c0.853 0 1.533-0.68 1.533-1.533v-2.347c0-0.84-0.68-1.533-1.533-1.533-1.52 0-2.733-0.587-3.32-1.613s-0.493-2.373 0.267-3.68c0.2-0.347 0.253-0.76 0.147-1.16s-0.36-0.72-0.707-0.933l-2.307-1.32c-0.573-0.347-1.333-0.147-1.68 0.44l-0.147 0.253c-0.76 1.32-1.867 2.067-3.053 2.067s-2.293-0.747-3.053-2.067l-0.147-0.267c-0.333-0.56-1.080-0.76-1.653-0.427l-2.307 1.333c-0.347 0.2-0.613 0.533-0.72 0.933s-0.053 0.813 0.147 1.16c0.76 1.307 0.853 2.653 0.267 3.68s-1.8 1.613-3.32 1.613c-0.853 0-1.533 0.68-1.533 1.533v2.347c0 0.84 0.68 1.533 1.533 1.533 1.52 0 2.733 0.587 3.32 1.613s0.493 2.373-0.267 3.68c-0.2 0.347-0.253 0.76-0.147 1.16s0.36 0.72 0.707 0.933l2.307 1.32c0.28 0.173 0.613 0.213 0.92 0.133 0.32-0.080 0.587-0.293 0.76-0.573l0.147-0.253c0.76-1.307 1.867-2.067 3.053-2.067z"></path>
</symbol>
<symbol id="icon-archive-book" viewBox="0 0 32 32">
<path d="M21.333 30.333h-10.667c-4.867 0-7.667-2.8-7.667-7.667v-13.333c0-4.867 2.8-7.667 7.667-7.667h10.667c4.867 0 7.667 2.8 7.667 7.667v13.333c0 4.867-2.8 7.667-7.667 7.667zM10.667 3.667c-3.813 0-5.667 1.853-5.667 5.667v13.333c0 3.813 1.853 5.667 5.667 5.667h10.667c3.813 0 5.667-1.853 5.667-5.667v-13.333c0-3.813-1.853-5.667-5.667-5.667h-10.667z"></path>
<path d="M12 14.813c-0.227 0-0.453-0.040-0.667-0.133-0.613-0.267-1-0.867-1-1.52v-10.493c0-0.547 0.453-1 1-1h9.333c0.547 0 1 0.453 1 1v10.48c0 0.667-0.387 1.267-1 1.52-0.6 0.267-1.307 0.147-1.8-0.307l-2.867-2.627-2.867 2.64c-0.32 0.293-0.72 0.44-1.133 0.44zM16 9.613c0.4 0 0.813 0.147 1.133 0.44l2.533 2.333v-8.72h-7.333v8.72l2.533-2.333c0.32-0.293 0.733-0.44 1.133-0.44z"></path>
<path d="M23.333 19.667h-5.667c-0.547 0-1-0.453-1-1s0.453-1 1-1h5.667c0.547 0 1 0.453 1 1s-0.453 1-1 1z"></path>
<path d="M23.333 25h-11.333c-0.547 0-1-0.453-1-1s0.453-1 1-1h11.333c0.547 0 1 0.453 1 1s-0.453 1-1 1z"></path>
</symbol>
<symbol id="icon-sitemap" viewBox="0 0 32 32">
<path stroke-linejoin="round" stroke-linecap="round" stroke-miterlimit="4" stroke-width="1.6" d="M3.053 10.373v12.973c0 2.533 1.8 3.573 3.987 2.32l3.133-1.787c0.68-0.387 1.813-0.427 2.52-0.067l7 3.507c0.707 0.347 1.84 0.32 2.52-0.067l5.773-3.307c0.733-0.427 1.347-1.467 1.347-2.32v-12.973c0-2.533-1.8-3.573-3.987-2.32l-3.133 1.787c-0.68 0.387-1.813 0.427-2.52 0.067l-7-3.493c-0.707-0.347-1.84-0.32-2.52 0.067l-5.773 3.307c-0.747 0.427-1.347 1.467-1.347 2.307z"></path>
<path stroke-linejoin="round" stroke-linecap="round" stroke-miterlimit="4" stroke-width="1.6" d="M11.413 5.333v17.333"></path>
<path stroke-linejoin="round" stroke-linecap="round" stroke-miterlimit="4" stroke-width="1.6" d="M20.974 8.827v17.84"></path>
</symbol>
<symbol id="icon-rejected" viewBox="0 0 32 32">
<path fill="#ea5455" style="fill: var(--color2, #ea5455)" d="M16 1.188c-8.163 0-14.815 6.652-14.815 14.815s6.652 14.815 14.815 14.815c8.163 0 14.815-6.652 14.815-14.815s-6.652-14.815-14.815-14.815zM20.978 19.41c0.43 0.43 0.43 1.141 0 1.57-0.222 0.222-0.504 0.326-0.785 0.326s-0.563-0.104-0.785-0.326l-3.407-3.407-3.407 3.407c-0.222 0.222-0.504 0.326-0.785 0.326s-0.563-0.104-0.785-0.326c-0.43-0.43-0.43-1.141 0-1.57l3.407-3.407-3.407-3.407c-0.43-0.43-0.43-1.141 0-1.57s1.141-0.43 1.57 0l3.407 3.407 3.407-3.407c0.43-0.43 1.141-0.43 1.57 0s0.43 1.141 0 1.57l-3.407 3.407 3.407 3.407z"></path>
</symbol>
<symbol id="icon-approve-waitting" viewBox="0 0 32 32">
<path fill="#ff9f43" style="fill: var(--color3, #ff9f43)" d="M16 1.188c-8.163 0-14.815 6.652-14.815 14.815s6.652 14.815 14.815 14.815 14.815-6.652 14.815-14.815c0-8.163-6.652-14.815-14.815-14.815zM21.807 17.113h-11.852c-0.607 0-1.111-0.504-1.111-1.111s0.504-1.111 1.111-1.111h11.852c0.607 0 1.111 0.504 1.111 1.111s-0.489 1.111-1.111 1.111z"></path>
</symbol>
<symbol id="icon-approve-success" viewBox="0 0 32 32">
<path fill="#28c76f" style="fill: var(--color4, #28c76f)" d="M16 1.188c-8.163 0-14.815 6.652-14.815 14.815s6.652 14.815 14.815 14.815 14.815-6.652 14.815-14.815c0-8.163-6.652-14.815-14.815-14.815zM23.082 12.595l-8.4 8.4c-0.207 0.207-0.489 0.326-0.785 0.326s-0.578-0.119-0.785-0.326l-4.193-4.193c-0.43-0.43-0.43-1.141 0-1.57s1.141-0.43 1.57 0l3.407 3.407 7.615-7.615c0.43-0.43 1.141-0.43 1.57 0s0.43 1.126 0 1.57z"></path>
</symbol>
<symbol id="icon-minus-square" viewBox="0 0 32 32">
<path d="M22.704 0h-13.408c-5.824 0-9.296 3.472-9.296 9.296v13.392c0 5.84 3.472 9.312 9.296 9.312h13.392c5.824 0 9.296-3.472 9.296-9.296v-13.408c0.016-5.824-3.456-9.296-9.28-9.296zM22.4 17.2h-12.8c-0.656 0-1.2-0.544-1.2-1.2s0.544-1.2 1.2-1.2h12.8c0.656 0 1.2 0.544 1.2 1.2s-0.544 1.2-1.2 1.2z"></path>
</symbol>
<symbol id="icon-add-square" viewBox="0 0 32 32">
<path d="M21.587 2.667h-11.173c-4.853 0-7.747 2.893-7.747 7.747v11.16c0 4.867 2.893 7.76 7.747 7.76h11.16c4.853 0 7.747-2.893 7.747-7.747v-11.173c0.013-4.853-2.88-7.747-7.733-7.747zM21.333 17h-4.333v4.333c0 0.547-0.453 1-1 1s-1-0.453-1-1v-4.333h-4.333c-0.547 0-1-0.453-1-1s0.453-1 1-1h4.333v-4.333c0-0.547 0.453-1 1-1s1 0.453 1 1v4.333h4.333c0.547 0 1 0.453 1 1s-0.453 1-1 1z"></path>
</symbol>
<symbol id="icon-task-square" viewBox="0 0 32 32">
<path d="M23.492 12.827h-7c-0.547 0-1-0.453-1-1s0.453-1 1-1h7c0.547 0 1 0.453 1 1s-0.44 1-1 1z"></path>
<path d="M9.494 13.84c-0.253 0-0.507-0.093-0.707-0.293l-1-1c-0.387-0.387-0.387-1.027 0-1.413s1.027-0.387 1.413 0l0.293 0.293 2.293-2.293c0.387-0.387 1.027-0.387 1.413 0s0.387 1.027 0 1.413l-3 3c-0.187 0.187-0.44 0.293-0.707 0.293z"></path>
<path d="M23.492 22.16h-7c-0.547 0-1-0.453-1-1s0.453-1 1-1h7c0.547 0 1 0.453 1 1s-0.44 1-1 1z"></path>
<path d="M9.494 23.173c-0.253 0-0.507-0.093-0.707-0.293l-1-1c-0.387-0.387-0.387-1.027 0-1.413s1.027-0.387 1.413 0l0.293 0.293 2.293-2.293c0.387-0.387 1.027-0.387 1.413 0s0.387 1.027 0 1.413l-3 3c-0.187 0.187-0.44 0.293-0.707 0.293z"></path>
<path d="M20 30.333h-8c-7.24 0-10.333-3.093-10.333-10.333v-8c0-7.24 3.093-10.333 10.333-10.333h8c7.24 0 10.333 3.093 10.333 10.333v8c0 7.24-3.093 10.333-10.333 10.333zM12 3.667c-6.147 0-8.333 2.187-8.333 8.333v8c0 6.147 2.187 8.333 8.333 8.333h8c6.147 0 8.333-2.187 8.333-8.333v-8c0-6.147-2.187-8.333-8.333-8.333h-8z"></path>
</symbol>
<symbol id="icon-programming-arrow" viewBox="0 0 32 32">
<path d="M25.333 22.333c-0.547 0-1-0.453-1-1v-12.667c0-0.92-0.747-1.667-1.667-1.667h-6c-0.547 0-1-0.453-1-1s0.453-1 1-1h6c2.027 0 3.667 1.64 3.667 3.667v12.667c0 0.547-0.453 1-1 1z"></path>
<path d="M20 10.333c-0.227 0-0.453-0.080-0.64-0.227l-4-3.333c-0.227-0.187-0.36-0.467-0.36-0.773s0.133-0.573 0.36-0.773l4-3.333c0.427-0.36 1.053-0.293 1.413 0.133s0.293 1.053-0.133 1.413l-3.080 2.56 3.080 2.56c0.427 0.36 0.48 0.987 0.133 1.413-0.2 0.24-0.493 0.36-0.773 0.36z"></path>
<path d="M6.667 22.333c-0.547 0-1-0.453-1-1v-9.333c0-0.547 0.453-1 1-1s1 0.453 1 1v9.333c0 0.547-0.453 1-1 1z"></path>
<path d="M7 12.333c-2.947 0-5.333-2.387-5.333-5.333s2.387-5.333 5.333-5.333c2.947 0 5.333 2.387 5.333 5.333s-2.387 5.333-5.333 5.333zM7 3.667c-1.84 0-3.333 1.493-3.333 3.333s1.493 3.333 3.333 3.333c1.84 0 3.333-1.493 3.333-3.333s-1.493-3.333-3.333-3.333z"></path>
<path d="M6.667 30.333c-2.76 0-5-2.24-5-5s2.24-5 5-5c2.76 0 5 2.24 5 5s-2.24 5-5 5zM6.667 22.333c-1.653 0-3 1.347-3 3s1.347 3 3 3c1.653 0 3-1.347 3-3s-1.347-3-3-3z"></path>
<path d="M25.333 30.333c-2.76 0-5-2.24-5-5s2.24-5 5-5c2.76 0 5 2.24 5 5s-2.24 5-5 5zM25.333 22.333c-1.653 0-3 1.347-3 3s1.347 3 3 3c1.653 0 3-1.347 3-3s-1.347-3-3-3z"></path>
</symbol>
<symbol id="icon-refresh-square" viewBox="0 0 32 32">
<path d="M20 30.333h-8c-7.24 0-10.333-3.093-10.333-10.333v-8c0-7.24 3.093-10.333 10.333-10.333h8c7.24 0 10.333 3.093 10.333 10.333v8c0 7.24-3.093 10.333-10.333 10.333zM12 3.667c-6.147 0-8.333 2.187-8.333 8.333v8c0 6.147 2.187 8.333 8.333 8.333h8c6.147 0 8.333-2.187 8.333-8.333v-8c0-6.147-2.187-8.333-8.333-8.333h-8z"></path>
<path fill="none" stroke="#292d32" style="stroke: var(--color5, #292d32)" stroke-linejoin="round" stroke-linecap="round" stroke-miterlimit="4" stroke-width="2" d="M23.333 16c0 4.053-3.28 7.333-7.333 7.333s-6.52-4.080-6.52-4.080M9.48 19.253h3.307M9.48 19.253v3.667M8.667 16c0-4.053 3.253-7.333 7.333-7.333 4.893 0 7.333 4.080 7.333 4.080M23.333 12.747v-3.667M23.333 12.747h-3.253"></path>
</symbol>
<symbol id="icon-message-favorite" viewBox="0 0 32 32">
<path stroke-linejoin="round" stroke-linecap="round" stroke-miterlimit="10" stroke-width="2.1333" d="M29.333 10.667v6.667c0 5.333-2.667 8-8 8h-0.667c-0.413 0-0.813 0.2-1.067 0.533l-2 2.667c-0.88 1.173-2.32 1.173-3.2 0l-2-2.667c-0.213-0.293-0.707-0.533-1.067-0.533h-0.667c-5.333 0-8-1.333-8-8v-6.667c0-5.333 2.667-8 8-8h5.333"></path>
<path stroke-linejoin="round" stroke-linecap="round" stroke-miterlimit="4" stroke-width="2.1333" d="M20.267 6.159c-0.44-1.32 0.080-2.947 1.52-3.4 0.747-0.227 1.68-0.040 2.213 0.667 0.507-0.733 1.467-0.893 2.213-0.667 1.44 0.44 1.96 2.080 1.52 3.4-0.68 2.093-3.067 3.173-3.733 3.173s-3.027-1.067-3.733-3.173z"></path>
<path stroke-linejoin="round" stroke-linecap="round" stroke-miterlimit="4" stroke-width="2.6667" d="M21.329 14.667h0.012"></path>
<path stroke-linejoin="round" stroke-linecap="round" stroke-miterlimit="4" stroke-width="2.6667" d="M15.994 14.667h0.012"></path>
<path stroke-linejoin="round" stroke-linecap="round" stroke-miterlimit="4" stroke-width="2.6667" d="M10.659 14.667h0.012"></path>
</symbol>
<symbol id="icon-send-square" viewBox="0 0 32 32">
<path stroke-linejoin="round" stroke-linecap="round" stroke-miterlimit="4" stroke-width="2.1333" d="M12 29.333h8c6.667 0 9.333-2.667 9.333-9.333v-8c0-6.667-2.667-9.333-9.333-9.333h-8c-6.667 0-9.333 2.667-9.333 9.333v8c0 6.667 2.667 9.333 9.333 9.333z"></path>
<path stroke-linejoin="round" stroke-linecap="round" stroke-miterlimit="4" stroke-width="2.1333" d="M14.12 10.24h5.653v5.667"></path>
<path stroke-linejoin="round" stroke-linecap="round" stroke-miterlimit="4" stroke-width="2.1333" d="M19.773 10.24l-7.547 7.547"></path>
<path stroke-linejoin="round" stroke-linecap="round" stroke-miterlimit="4" stroke-width="2.1333" d="M8 22.014c5.187 1.733 10.813 1.733 16 0"></path>
</symbol>
<symbol id="icon-calendar" viewBox="0 0 32 32">
<path stroke-linejoin="round" stroke-linecap="round" stroke-miterlimit="10" stroke-width="2.1333" d="M10.667 2.667v4"></path>
<path stroke-linejoin="round" stroke-linecap="round" stroke-miterlimit="10" stroke-width="2.1333" d="M21.333 2.667v4"></path>
<path stroke-linejoin="round" stroke-linecap="round" stroke-miterlimit="10" stroke-width="2.1333" d="M21.333 4.667c4.44 0.24 6.667 1.933 6.667 8.2v8.24c0 5.493-1.333 8.24-8 8.24h-8c-6.667 0-8-2.747-8-8.24v-8.24c0-6.267 2.227-7.947 6.667-8.2h10.667z"></path>
<path stroke-linejoin="round" stroke-linecap="round" stroke-miterlimit="10" stroke-width="2.1333" d="M27.667 23.465h-23.333"></path>
<path d="M16 11c-1.64 0-3.027 0.893-3.027 2.627 0 0.827 0.387 1.453 0.973 1.853-0.813 0.48-1.28 1.253-1.28 2.16 0 1.653 1.267 2.68 3.333 2.68 2.053 0 3.333-1.027 3.333-2.68 0-0.907-0.467-1.693-1.293-2.16 0.6-0.413 0.973-1.027 0.973-1.853 0-1.733-1.373-2.627-3.013-2.627zM16 14.787c-0.693 0-1.2-0.413-1.2-1.067 0-0.667 0.507-1.053 1.2-1.053s1.2 0.387 1.2 1.053c0 0.653-0.507 1.067-1.2 1.067zM16 18.667c-0.88 0-1.52-0.44-1.52-1.24s0.64-1.227 1.52-1.227c0.88 0 1.52 0.44 1.52 1.227 0 0.8-0.64 1.24-1.52 1.24z"></path>
</symbol>
<symbol id="icon-timer-start1" viewBox="0 0 32 32">
<path stroke-linejoin="round" stroke-linecap="round" stroke-miterlimit="4" stroke-width="2.1333" d="M16 10.667v6.667"></path>
<path stroke-linejoin="round" stroke-linecap="round" stroke-miterlimit="4" stroke-width="2.1333" d="M16 29.333c-6.44 0-11.667-5.227-11.667-11.667s5.227-11.667 11.667-11.667c6.44 0 11.667 5.227 11.667 11.667"></path>
<path stroke-linejoin="round" stroke-linecap="round" stroke-miterlimit="10" stroke-width="2.1333" d="M12 2.667h8"></path>
<path stroke-linejoin="round" stroke-linecap="round" stroke-miterlimit="10" stroke-width="2.1333" d="M19.867 24.667v-1.547c0-1.907 1.36-2.693 3.013-1.733l2.667 1.547c1.653 0.96 1.653 2.52 0 3.48l-2.667 1.547c-1.653 0.96-3.013 0.173-3.013-1.733v-1.56z"></path>
</symbol>
<symbol id="icon-projects" viewBox="0 0 32 32">
<path stroke-linejoin="round" stroke-linecap="round" stroke-miterlimit="10" stroke-width="1.6" d="M28 9.333v13.333c0 4-2 6.667-6.667 6.667h-10.667c-4.667 0-6.667-2.667-6.667-6.667v-13.333c0-4 2-6.667 6.667-6.667h10.667c4.667 0 6.667 2.667 6.667 6.667z"></path>
<path stroke-linejoin="round" stroke-linecap="round" stroke-miterlimit="10" stroke-width="1.6" d="M19.333 6v2.667c0 1.467 1.2 2.667 2.667 2.667h2.667"></path>
<path stroke-linejoin="round" stroke-linecap="round" stroke-miterlimit="10" stroke-width="1.6" d="M13.333 17.333l-2.667 2.667 2.667 2.667"></path>
<path stroke-linejoin="round" stroke-linecap="round" stroke-miterlimit="10" stroke-width="1.6" d="M18.667 17.333l2.667 2.667-2.667 2.667"></path>
</symbol>
</defs>
</svg>
