<svg width="832" height="208" viewBox="0 0 832 208" fill="none" xmlns="http://www.w3.org/2000/svg">
<path d="M0 55.4667C0 24.8333 24.8333 0 55.4667 0H152.533C183.167 0 208 24.8333 208 55.4667V152.533C208 183.167 183.167 208 152.533 208H55.4667C24.8333 208 0 183.167 0 152.533V55.4667Z" fill="#2F45C5"/>
<path fill-rule="evenodd" clip-rule="evenodd" d="M170.708 106.961C162.985 82.5033 141.608 65.7416 116.915 62.4707C140.544 57.0754 148.696 65.7699 148.696 65.7699C154.132 42.0417 135.312 32.1243 135.312 32.1243C123.826 39.288 112.92 54.7247 108.243 61.8952C80.6985 61.845 61.6308 80.3102 61.6308 80.3102C67.3429 63.3526 92.5746 56.6895 92.5746 56.6895C91.0215 30.0887 69.61 34.0193 69.61 34.0193C69.61 34.0193 14.4455 110.855 51.1502 152.425C80.0828 185.191 127.588 179.477 149.682 165.352C165.553 155.205 179.248 134.004 170.708 106.961Z" fill="#FEFEFE"/>
<path opacity="0.104152" fill-rule="evenodd" clip-rule="evenodd" d="M117.241 71.7731C116.081 71.1706 116.766 69.3929 118.024 69.7375C135.339 74.4875 171.321 89.9211 161.231 134.911C157.908 149.725 144.803 162.508 128.07 164.628C107.768 167.201 92.9719 158.976 93.7075 147.688C95.6814 117.389 149.187 152.213 145.029 107.838C143.407 90.5334 137.149 82.1045 117.241 71.7731Z" fill="#231F20"/>
<path fill-rule="evenodd" clip-rule="evenodd" d="M81.0826 109.921C81.0964 109.927 81.1436 109.974 81.1887 110.019L81.3273 110.152C81.4265 110.244 81.5194 110.338 81.6275 110.429C81.83 110.619 82.0449 110.802 82.2619 110.984C82.4769 111.166 82.7071 111.337 82.9255 111.516L83.6132 112.014C84.5409 112.663 85.5282 113.199 86.5322 113.644C88.5449 114.542 90.6839 114.934 92.8415 114.887C93.1029 114.896 93.3996 114.868 93.6888 114.849L94.5568 114.791C95.1302 114.711 95.7091 114.661 96.277 114.552C97.4244 114.385 98.5407 114.082 99.6549 113.767C100.757 113.419 101.842 113.009 102.889 112.52C103.419 112.288 103.926 112.015 104.427 111.743C104.674 111.606 104.925 111.465 105.156 111.32C105.276 111.249 105.396 111.179 105.503 111.108L105.663 111.005C105.708 110.977 105.776 110.93 105.778 110.937C106.768 110.036 108.295 110.117 109.187 111.118C110.078 112.118 109.997 113.658 109.007 114.559L108.747 114.807L108.526 115.01C108.38 115.145 108.236 115.268 108.093 115.389C107.802 115.635 107.509 115.856 107.212 116.08C106.617 116.513 106.008 116.919 105.38 117.286C104.123 118.019 102.81 118.641 101.45 119.142C98.7161 120.119 95.8665 120.677 92.9427 120.705C89.9046 120.727 86.8088 120.024 84.1596 118.572C82.8256 117.869 81.5908 117.01 80.4752 116.032C79.9268 115.529 79.3902 115.021 78.8972 114.461C78.6511 114.182 78.407 113.899 78.174 113.6C78.0583 113.456 77.9432 113.294 77.8295 113.14L77.6561 112.894L77.4599 112.605C76.8012 111.638 77.0446 110.316 78.0021 109.651C78.6247 109.219 79.3957 109.172 80.0405 109.456L81.0826 109.921Z" fill="#010202"/>
<path fill-rule="evenodd" clip-rule="evenodd" d="M139.515 109.101L140.08 109.409C140.288 109.524 140.503 109.637 140.721 109.747C141.156 109.967 141.604 110.166 142.054 110.356C142.951 110.741 143.867 111.051 144.776 111.293C145.688 111.536 146.595 111.697 147.482 111.745C148.373 111.832 149.229 111.755 150.062 111.618C150.887 111.491 151.718 111.178 152.553 110.836C153.383 110.454 154.203 109.983 155.012 109.451C155.811 108.897 156.598 108.29 157.35 107.626C157.731 107.298 158.103 106.956 158.459 106.602C158.641 106.427 158.812 106.246 158.985 106.068L159.457 105.573L159.616 105.406C160.532 104.445 162.047 104.416 162.999 105.342C163.847 106.166 163.962 107.471 163.328 108.425C163.109 108.754 162.949 108.984 162.76 109.248C162.574 109.499 162.384 109.746 162.19 109.985C161.805 110.469 161.402 110.935 160.985 111.391C160.143 112.294 159.23 113.144 158.239 113.926C157.24 114.706 156.15 115.398 154.981 116.006C154.374 116.28 153.785 116.58 153.13 116.783C152.809 116.89 152.493 117.012 152.161 117.1L151.152 117.34C148.429 117.89 145.678 117.616 143.23 116.875C141.998 116.51 140.822 116.034 139.7 115.473C139.143 115.181 138.596 114.879 138.061 114.548C137.793 114.384 137.526 114.214 137.261 114.035C136.987 113.845 136.761 113.681 136.427 113.424C135.267 112.536 135.041 110.868 135.92 109.698C136.718 108.638 138.149 108.351 139.273 108.967L139.515 109.101Z" fill="#010202"/>
<path fill-rule="evenodd" clip-rule="evenodd" d="M131.641 119.026H121.789C119.913 119.026 118.392 120.67 118.392 122.699C118.392 123.724 118.787 124.702 119.484 125.398L122.271 127.712C124.211 129.276 124.378 130.573 124.428 131.925L124.627 138.432C124.38 138.527 124.132 138.62 123.875 138.699C123.681 138.77 123.481 138.82 123.281 138.87C123.16 138.9 123.04 138.929 122.921 138.964C122.73 139.009 122.538 139.044 122.346 139.079C122.217 139.103 122.088 139.127 121.959 139.153C120.673 139.356 119.395 139.328 118.204 139.075C117.012 138.822 115.885 138.385 114.887 137.674C114.519 137.47 114.191 137.182 113.863 136.894C113.723 136.771 113.583 136.648 113.44 136.533L113.264 136.384L113.104 136.203L112.784 135.845L112.141 135.142L111.934 134.914L111.885 134.861C110.818 133.756 109.03 133.668 107.876 134.681C106.525 135.866 106.534 137.932 107.819 139.108L108.822 140.028L109.325 140.482L109.577 140.708L109.859 140.91C110.021 141.021 110.18 141.135 110.339 141.249C110.93 141.67 111.517 142.089 112.192 142.404C113.813 143.313 115.669 143.849 117.503 144.041C119.345 144.238 121.182 144.073 122.897 143.629C123.026 143.59 123.157 143.553 123.286 143.516C123.582 143.431 123.876 143.347 124.164 143.248C124.3 143.195 124.437 143.147 124.573 143.098C124.849 142.999 125.125 142.899 125.392 142.775L125.402 142.77C125.999 142.519 126.671 142.538 127.24 142.848C127.399 142.935 127.559 143.016 127.721 143.091C128.673 143.52 129.662 143.765 130.611 143.854C131.565 143.95 132.498 143.935 133.389 143.828C133.836 143.778 134.281 143.722 134.706 143.627C135.136 143.548 135.567 143.46 136.013 143.322C137.763 142.831 139.592 141.983 141.07 140.524C141.816 139.815 142.457 138.965 142.951 138.029C143.199 137.561 143.411 137.072 143.586 136.56L143.589 136.55C143.67 136.294 143.752 136.038 143.815 135.762C143.85 135.631 143.879 135.481 143.906 135.332C143.921 135.262 143.934 135.184 143.946 135.094C143.947 135.081 143.949 135.068 143.951 135.055C143.961 134.984 143.971 134.912 143.982 134.765C144.065 133.217 142.888 131.895 141.355 131.812C139.838 131.73 138.543 132.892 138.436 134.416C138.438 134.407 138.438 134.416 138.438 134.423C138.44 134.429 138.439 134.446 138.436 134.471C138.436 134.478 138.435 134.487 138.434 134.495C138.432 134.53 138.43 134.565 138.422 134.609C138.414 134.681 138.398 134.76 138.38 134.84C138.374 134.871 138.367 134.901 138.362 134.932C138.307 135.156 138.233 135.384 138.14 135.607C137.955 136.054 137.697 136.478 137.358 136.858C136.713 137.638 135.726 138.24 134.577 138.669C133.394 139.097 132.065 139.393 130.939 139.363C130.363 139.365 129.839 139.264 129.377 139.109C129.312 139.088 129.25 139.063 129.191 139.037C129.143 139.016 129.096 138.996 129.046 138.978C129.005 138.953 128.961 138.931 128.917 138.909C128.873 138.886 128.829 138.864 128.789 138.839L128.992 132.219H128.993C129.036 130.819 129.651 128.909 131.455 127.504L133.899 125.699C134.624 125.002 135.038 124.003 135.038 122.955V122.699C135.038 120.67 133.518 119.026 131.641 119.026Z" fill="#010202"/>
<path fill-rule="evenodd" clip-rule="evenodd" d="M138.438 134.417C138.437 134.423 138.436 134.435 138.433 134.467C138.434 134.45 138.437 134.434 138.438 134.417Z" fill="#010202"/>
<path d="M284.346 61.4546H305.382L327.6 115.661H328.546L350.764 61.4546H371.8V142.133H355.254V89.621H354.584L333.706 141.74H322.439L301.56 89.4241H300.891V142.133H284.346V61.4546ZM385.538 142.133V81.6241H402.321V142.133H385.538ZM393.969 73.8241C391.474 73.8241 389.334 72.9969 387.548 71.3426C385.788 69.6613 384.908 67.6526 384.908 65.3152C384.908 63.0041 385.788 61.0213 387.548 59.3667C389.334 57.6859 391.474 56.8455 393.969 56.8455C396.464 56.8455 398.591 57.6859 400.351 59.3667C402.137 61.0213 403.03 63.0041 403.03 65.3152C403.03 67.6526 402.137 69.6613 400.351 71.3426C398.591 72.9969 396.464 73.8241 393.969 73.8241ZM432.546 107.151V142.133H415.764V81.6241H431.757V92.3H432.467C433.806 88.7807 436.051 85.9969 439.203 83.9488C442.354 81.8737 446.176 80.8365 450.667 80.8365C454.869 80.8365 458.532 81.7558 461.657 83.5938C464.783 85.4326 467.212 88.0589 468.946 91.4729C470.679 94.8605 471.546 98.9054 471.546 103.606V142.133H454.764V106.6C454.79 102.897 453.844 100.008 451.927 97.9334C450.01 95.8326 447.371 94.7822 444.009 94.7822C441.75 94.7822 439.754 95.2675 438.021 96.2396C436.314 97.2109 434.974 98.6295 434.003 100.494C433.057 102.333 432.572 104.551 432.546 107.151ZM535.117 98.8791L519.754 99.8241C519.491 98.5109 518.927 97.3295 518.06 96.2791C517.193 95.2023 516.051 94.3488 514.633 93.7179C513.241 93.0613 511.573 92.7334 509.63 92.7334C507.03 92.7334 504.837 93.2846 503.051 94.3877C501.265 95.4644 500.372 96.9093 500.372 98.721C500.372 100.166 500.95 101.387 502.105 102.385C503.261 103.383 505.244 104.184 508.054 104.788L519.005 106.994C524.888 108.202 529.274 110.146 532.163 112.824C535.052 115.503 536.496 119.022 536.496 123.382C536.496 127.347 535.327 130.827 532.99 133.821C530.679 136.815 527.501 139.153 523.457 140.833C519.438 142.488 514.803 143.315 509.551 143.315C501.541 143.315 495.159 141.647 490.405 138.312C485.678 134.95 482.907 130.381 482.093 124.603L498.6 123.736C499.098 126.179 500.307 128.043 502.224 129.33C504.141 130.591 506.596 131.221 509.59 131.221C512.531 131.221 514.895 130.657 516.681 129.527C518.493 128.372 519.412 126.888 519.438 125.076C519.412 123.553 518.769 122.305 517.508 121.333C516.248 120.336 514.304 119.574 511.678 119.049L501.2 116.961C495.29 115.779 490.891 113.73 488.002 110.815C485.14 107.9 483.708 104.184 483.708 99.6667C483.708 95.7799 484.759 92.4311 486.86 89.621C488.987 86.8109 491.968 84.6442 495.802 83.121C499.663 81.5977 504.18 80.8365 509.354 80.8365C516.996 80.8365 523.01 82.4512 527.396 85.6822C531.808 88.9124 534.382 93.3109 535.117 98.8791ZM559 142.133L542.533 81.6241H559.512L568.888 122.279H569.439L579.209 81.6241H595.873L605.8 122.043H606.312L615.53 81.6241H632.47L616.043 142.133H598.276L587.876 104.079H587.127L576.727 142.133H559ZM658.676 143.276C654.816 143.276 651.376 142.606 648.355 141.267C645.335 139.901 642.945 137.892 641.186 135.24C639.452 132.561 638.586 129.226 638.586 125.233C638.586 121.872 639.203 119.049 640.437 116.764C641.672 114.479 643.352 112.64 645.479 111.249C647.607 109.857 650.023 108.806 652.728 108.097C655.459 107.388 658.322 106.889 661.316 106.6C664.835 106.233 667.672 105.891 669.825 105.576C671.979 105.234 673.541 104.736 674.513 104.079C675.485 103.422 675.97 102.45 675.97 101.164V100.927C675.97 98.4326 675.183 96.5023 673.607 95.1365C672.057 93.7706 669.852 93.0877 666.989 93.0877C663.969 93.0877 661.565 93.7574 659.779 95.0969C657.993 96.4101 656.812 98.0644 656.234 100.061L640.713 98.8C641.5 95.1233 643.05 91.9457 645.362 89.2667C647.672 86.5613 650.653 84.4869 654.303 83.0426C657.98 81.5721 662.235 80.8365 667.067 80.8365C670.429 80.8365 673.646 81.2303 676.719 82.0179C679.818 82.8062 682.562 84.0272 684.952 85.6822C687.369 87.3365 689.272 89.4636 690.665 92.0636C692.056 94.6373 692.752 97.7233 692.752 101.321V142.133H676.837V133.743H676.365C675.393 135.633 674.093 137.301 672.465 138.746C670.836 140.164 668.879 141.28 666.595 142.094C664.31 142.882 661.67 143.276 658.676 143.276ZM663.483 131.694C665.952 131.694 668.131 131.208 670.022 130.236C671.913 129.239 673.396 127.899 674.473 126.218C675.55 124.537 676.089 122.633 676.089 120.506V114.085C675.563 114.426 674.841 114.741 673.922 115.03C673.029 115.293 672.018 115.543 670.889 115.779C669.759 115.989 668.63 116.186 667.5 116.37C666.372 116.527 665.347 116.672 664.428 116.803C662.458 117.092 660.738 117.551 659.267 118.182C657.797 118.812 656.655 119.666 655.84 120.743C655.026 121.793 654.619 123.106 654.619 124.682C654.619 126.967 655.446 128.713 657.1 129.921C658.782 131.103 660.909 131.694 663.483 131.694ZM705.772 164.824V81.6241H722.315V91.7877H723.063C723.798 90.1597 724.866 88.5054 726.26 86.8241C727.674 85.1171 729.511 83.6992 731.772 82.5698C734.06 81.414 736.895 80.8365 740.279 80.8365C744.695 80.8365 748.765 81.9922 752.495 84.3031C756.226 86.5877 759.2 90.0411 761.432 94.6636C763.665 99.2597 764.781 105.024 764.781 111.957C764.781 118.707 763.693 124.406 761.516 129.054C759.359 133.677 756.42 137.183 752.69 139.573C748.987 141.936 744.841 143.118 740.244 143.118C736.986 143.118 734.212 142.58 731.931 141.503C729.671 140.426 727.82 139.074 726.378 137.446C724.928 135.791 723.826 134.123 723.063 132.443H722.55V164.824H705.772ZM722.197 111.879C722.197 115.477 722.696 118.616 723.694 121.294C724.693 123.973 726.142 126.061 728.028 127.557C729.92 129.028 732.215 129.764 734.926 129.764C737.658 129.764 739.967 129.015 741.86 127.518C743.746 125.995 745.181 123.894 746.151 121.215C747.15 118.51 747.649 115.398 747.649 111.879C747.649 108.386 747.164 105.313 746.193 102.661C745.215 100.008 743.787 97.9334 741.894 96.4365C740.008 94.9395 737.679 94.1908 734.926 94.1908C732.195 94.1908 729.879 94.9132 727.993 96.3574C726.128 97.8023 724.693 99.8504 723.694 102.503C722.696 105.156 722.197 108.281 722.197 111.879Z" fill="black"/>
</svg>
