<svg width="523" height="522" viewBox="0 0 523 522" fill="none" xmlns="http://www.w3.org/2000/svg">
<path d="M0.902832 139.693C0.902832 62.9134 63.1446 0.671631 139.924 0.671631H383.21C459.99 0.671631 522.231 62.9134 522.231 139.693V382.979C522.231 459.759 459.99 522 383.21 522H139.924C63.1446 522 0.902832 459.759 0.902832 382.979V139.693Z" fill="#2F45C5"/>
<path fill-rule="evenodd" clip-rule="evenodd" d="M428.764 268.758C409.405 207.457 355.827 165.445 293.938 157.247C353.161 143.725 373.592 165.517 373.592 165.517C387.217 106.044 340.046 81.1875 340.046 81.1875C311.258 99.1426 283.923 137.833 272.202 155.805C203.164 155.679 155.373 201.96 155.373 201.96C169.69 159.458 232.93 142.757 232.93 142.757C229.038 76.0856 175.372 85.9372 175.372 85.9372C175.372 85.9372 37.1088 278.517 129.105 382.707C201.621 464.833 320.687 450.51 376.063 415.107C415.842 389.675 450.168 336.538 428.764 268.758Z" fill="#FEFEFE"/>
<path opacity="0.104152" fill-rule="evenodd" clip-rule="evenodd" d="M294.753 180.563C291.847 179.053 293.564 174.597 296.717 175.461C340.116 187.366 430.298 226.049 405.009 338.81C396.681 375.939 363.836 407.978 321.895 413.293C271.012 419.741 233.926 399.128 235.77 370.834C240.717 294.894 374.822 382.176 364.401 270.956C360.336 227.583 344.651 206.457 294.753 180.563Z" fill="#231F20"/>
<path fill-rule="evenodd" clip-rule="evenodd" d="M204.127 276.176C204.162 276.192 204.28 276.31 204.393 276.421L204.741 276.755C204.989 276.986 205.222 277.221 205.493 277.45C206 277.925 206.539 278.385 207.083 278.84C207.622 279.296 208.199 279.725 208.746 280.173L210.47 281.423C212.795 283.047 215.27 284.392 217.786 285.506C222.831 287.759 228.192 288.74 233.6 288.622C234.255 288.647 234.998 288.575 235.723 288.527L237.899 288.382C239.336 288.181 240.787 288.057 242.21 287.783C245.086 287.366 247.884 286.605 250.677 285.816C253.438 284.943 256.159 283.916 258.781 282.689C260.111 282.109 261.381 281.424 262.638 280.743C263.256 280.399 263.885 280.046 264.466 279.681C264.765 279.504 265.065 279.329 265.335 279.151L265.736 278.894C265.849 278.823 266.018 278.705 266.024 278.722C268.506 276.465 272.331 276.668 274.567 279.176C276.8 281.682 276.599 285.543 274.117 287.802L273.466 288.422L272.911 288.932C272.545 289.269 272.183 289.578 271.825 289.882C271.095 290.497 270.362 291.052 269.618 291.613C268.127 292.699 266.6 293.716 265.027 294.637C261.876 296.473 258.583 298.032 255.176 299.289C248.324 301.737 241.181 303.136 233.853 303.206C226.238 303.261 218.479 301.497 211.839 297.86C208.496 296.098 205.401 293.943 202.605 291.493C201.23 290.233 199.885 288.958 198.65 287.555C198.033 286.855 197.421 286.148 196.837 285.397C196.547 285.035 196.259 284.631 195.974 284.243L195.539 283.628L195.047 282.903C193.396 280.479 194.006 277.165 196.406 275.499C197.967 274.416 199.899 274.298 201.515 275.01L204.127 276.176Z" fill="#010202"/>
<path fill-rule="evenodd" clip-rule="evenodd" d="M350.582 274.12L351.997 274.894C352.52 275.182 353.057 275.465 353.604 275.74C354.694 276.293 355.818 276.791 356.944 277.267C359.193 278.23 361.488 279.009 363.768 279.615C366.053 280.225 368.326 280.627 370.549 280.748C372.784 280.965 374.928 280.773 377.015 280.428C379.085 280.11 381.167 279.327 383.259 278.47C385.341 277.512 387.395 276.333 389.423 274.998C391.425 273.609 393.397 272.089 395.283 270.424C396.237 269.602 397.17 268.745 398.063 267.857C398.518 267.418 398.947 266.966 399.38 266.519L400.564 265.279L400.962 264.86C403.259 262.451 407.056 262.378 409.44 264.698C411.567 266.764 411.854 270.035 410.266 272.426C409.718 273.251 409.317 273.827 408.842 274.491C408.377 275.118 407.899 275.736 407.414 276.336C406.448 277.549 405.44 278.718 404.394 279.86C402.282 282.123 399.995 284.253 397.51 286.213C395.008 288.168 392.274 289.903 389.346 291.427C387.824 292.115 386.347 292.866 384.707 293.375C383.9 293.642 383.11 293.948 382.277 294.169L379.747 294.772C372.923 296.148 366.027 295.462 359.893 293.606C356.805 292.69 353.856 291.498 351.044 290.09C349.649 289.361 348.278 288.603 346.936 287.772C346.266 287.362 345.596 286.936 344.933 286.488C344.246 286.01 343.678 285.6 342.84 284.957C339.935 282.731 339.368 278.55 341.572 275.618C343.57 272.96 347.159 272.24 349.976 273.785L350.582 274.12Z" fill="#010202"/>
<path fill-rule="evenodd" clip-rule="evenodd" d="M330.846 298.997H306.153C301.45 298.997 297.638 303.119 297.638 308.203C297.638 310.772 298.63 313.224 300.376 314.967L307.36 320.767C312.224 324.688 312.643 327.939 312.768 331.328L313.267 347.635C312.647 347.875 312.025 348.107 311.382 348.304C310.895 348.483 310.393 348.608 309.892 348.733C309.59 348.808 309.289 348.882 308.99 348.969C308.512 349.082 308.031 349.171 307.55 349.258C307.225 349.319 306.902 349.378 306.578 349.444C303.355 349.951 300.154 349.882 297.168 349.247C294.181 348.613 291.356 347.518 288.855 345.735C287.932 345.225 287.108 344.502 286.288 343.78C285.937 343.473 285.586 343.165 285.228 342.875L284.787 342.503L284.385 342.05L283.583 341.153L281.972 339.389L281.454 338.817L281.329 338.685C278.656 335.915 274.174 335.696 271.281 338.234C267.896 341.203 267.918 346.382 271.138 349.331L273.653 351.637L274.913 352.773L275.545 353.34L276.253 353.846C276.658 354.125 277.057 354.41 277.455 354.695C278.936 355.752 280.408 356.801 282.1 357.59C286.163 359.87 290.815 361.212 295.411 361.693C300.027 362.189 304.632 361.773 308.93 360.661C309.255 360.564 309.581 360.472 309.906 360.378C310.646 360.166 311.383 359.956 312.106 359.707C312.447 359.575 312.789 359.453 313.131 359.33C313.823 359.081 314.515 358.833 315.184 358.52L315.208 358.51C316.704 357.879 318.39 357.926 319.815 358.704C320.215 358.923 320.616 359.125 321.021 359.313C323.407 360.388 325.885 361.003 328.266 361.226C330.655 361.466 332.994 361.427 335.227 361.162C336.346 361.035 337.464 360.894 338.529 360.656C339.605 360.459 340.687 360.237 341.803 359.891C346.191 358.661 350.775 356.536 354.478 352.879C356.348 351.102 357.955 348.973 359.193 346.627C359.815 345.454 360.346 344.227 360.784 342.943L360.791 342.919C360.996 342.277 361.201 341.636 361.36 340.944C361.446 340.614 361.519 340.239 361.587 339.867C361.624 339.69 361.657 339.495 361.686 339.269C361.69 339.236 361.695 339.205 361.7 339.172C361.724 338.995 361.751 338.812 361.778 338.444C361.985 334.565 359.036 331.251 355.194 331.043C351.392 330.838 348.146 333.75 347.876 337.57C347.881 337.549 347.881 337.571 347.881 337.589C347.887 337.603 347.885 337.646 347.876 337.707C347.876 337.726 347.875 337.747 347.873 337.768C347.868 337.855 347.862 337.943 347.842 338.053C347.822 338.235 347.781 338.432 347.737 338.633C347.722 338.71 347.704 338.786 347.69 338.863C347.553 339.424 347.367 339.996 347.136 340.555C346.67 341.676 346.026 342.74 345.176 343.69C343.558 345.647 341.083 347.153 338.204 348.231C335.239 349.303 331.908 350.043 329.088 349.969C327.644 349.974 326.33 349.722 325.171 349.333C325.007 349.28 324.854 349.216 324.705 349.152C324.585 349.1 324.467 349.049 324.342 349.004C324.239 348.942 324.13 348.886 324.019 348.83C323.907 348.773 323.798 348.717 323.699 348.657L324.206 332.064H324.208C324.316 328.554 325.859 323.768 330.379 320.246L336.506 315.723C338.322 313.976 339.361 311.472 339.361 308.844V308.203C339.361 303.119 335.55 298.997 330.846 298.997Z" fill="#010202"/>
<path fill-rule="evenodd" clip-rule="evenodd" d="M347.882 337.573C347.88 337.589 347.876 337.617 347.869 337.698C347.871 337.655 347.88 337.615 347.882 337.573Z" fill="#010202"/>
</svg>
